<svg xmlns="http://www.w3.org/2000/svg" viewBox="0 0 512 512">
   <path fill="currentColor" d="M2.5 456.5 0 454.1V285c0-150 .2-169.6 1.5-172.8 2-4.5 4.1-7 7.8-9 1.5-.7 39.5-8.8 84.5-17.8l122-24.5 40.3-8.1 80.1 16c44.1 9 81 16.7 82 17.2 2.8 1.5 4.1 5.7 2.8 9-2.5 6 0 6.3-85.6-11l-79-16-119.5 24c-65.7 13.1-120 24.1-120.7 24.4-1.3.5-1.8 14.5-.4 14.5l54-10.7 53.3-10.6 2.7 2c3.7 2.8 3.8 8.8.2 11.4-1.7 1.2-20.3 5.3-56.7 12.6L15 146.5V234h482v-87.5l-120.8-24.2L255.5 98l-49 10c-27 5.4-50.7 9.9-52.7 9.9-2.8 0-4.2-.6-5.7-2.6-2.7-3.4-2.6-5.7.2-8.8 2-2.3 6.5-3.4 54.9-13.1l52.7-10.6 119.6 24c65.8 13.3 120 24.1 120.6 24.1.6 0 .9-3 .7-7.3l-.3-7.2-28-5.7c-30-6-31.5-6.6-31.5-12.5 0-2.8 4.1-7.3 6.8-7.3 3.9 0 56.3 11 59 12.3 3.6 2 5.8 4.5 7.7 9 1.3 3.2 1.5 22.8 1.5 172.7v169l-2.5 2.5-2.4 2.5H75l-2.5-2.5c-3.2-3-3.2-7 0-10l2.4-2.5H130V279H15v165h17.5c17.3 0 17.6 0 20 2.5 3.2 3 3.2 7 0 10l-2.4 2.5H4.9Zm197.5-45V379h-55v65h55zm79 0V379h-7c-6.2 0-7.4-.3-9.5-2.5a8.6 8.6 0 0 1-2.5-5c0-1.4 1.1-3.7 2.5-5 2.1-2.2 3.3-2.5 9.5-2.5h7v-85h-64v165h64zm78-50V279h-64v85h7.9c9.6 0 13.1 2 13.1 7.5s-3.5 7.5-13.1 7.5H293v65h64zm140 50V379h-51c-28 0-51.6-.3-52.5-.6-.8-.4-2.3-2-3.1-3.6-1.3-2.5-1.3-3.5-.3-6a9 9 0 0 1 3-3.8c1-.6 22-1 52.8-1H497v-85H372v165h125zm-297-90V279h-55v85h55zm297-65V249H15v15h482Zm-464.5 150-2.5-2.4v-85.2l2.5-2.4 2.4-2.5h75.2l2.4 2.5 2.5 2.4v85.2l-2.5 2.4-2.4 2.5H34.9Zm67.5-20V379H45v15h55Zm0-40V329H45v35h55ZM250.5 217c-1-1-2-3.4-2.4-5.2-.5-2.6-1.3-3.4-3.7-3.9-5.8-1.1-12.6-5.3-14-8.3-1.6-4-.1-8 3.7-9.7 2.7-1 3.7-.9 8.9 1.6 4.9 2.3 6.7 2.7 11.9 2.3 7-.5 10.5-3 12.3-9 .9-3 .8-4.1-.8-6.9-1.5-2.6-3.7-4-10.9-6.8-13.8-5.5-20-10.1-22.4-16.4a28.4 28.4 0 0 1 1-18.4c2.2-4.6 8-10 11.7-11 1.6-.4 2.2-1.3 2.2-3.3 0-4.2 3.5-8 7.4-8 4 0 7.6 3.5 7.6 7.2 0 2 .8 2.8 4.4 4.2 6.4 2.5 9.6 5.8 9.6 10 0 2.5-.7 4-2.6 5.5-3.4 2.7-4.5 2.6-10.2-.4-7.7-4.1-14.3-3-16.8 3s.1 8.5 15.2 14.4c9.7 3.8 14.5 7.6 17.4 13.6 6 12.4-.7 29.7-13.6 35.1-2.7 1.2-3.4 2-3.4 4.3 0 1.5-1 4-2 5.5-2.6 3.2-7.8 3.6-10.5.6z" />
</svg>