<svg xmlns="http://www.w3.org/2000/svg" viewBox="0 0 512 512">
   <path fill="currentColor" d="M245.5 507.5L128 451a3818.8 3818.8 0 0 1-110.3-54.3c-1.6-1.9-1.7-10-1.7-140.8 0-130.7.1-138.9 1.8-140.8 1-1 54.1-27.3 118.2-58.2C221.4 15.6 253.4.5 256 .5c2.6 0 33.7 14.6 120 56.3 64 30.9 117.3 57.1 118.3 58.2 1.6 2 1.7 10 1.7 140.8 0 130.7-.1 139-1.8 140.8-1.8 2.1-233 114-237.2 114.8-1.7.4-5.5-1-11.5-3.9zm3.5-143.2V236.8l-10.3-5c-5.6-2.9-11-5.9-12-6.8-4-3.5-.7-12.2 4.7-12.2a66 66 0 0 1 13.2 5.1c10 4.7 11 5 14 4 1.8-.6 14-6.4 27-12.8 13.2-6.3 25.1-11.6 26.6-11.6 5 0 8.6 5.1 6.8 9.9-.8 2.1-6 5-28.5 16L263 236.8v127.6c0 110.7.2 127.5 1.4 127.2.8-.1 49.9-23.7 109-52.2l107.6-52V259.6c0-70.3-.2-127.8-.4-127.8l-34.2 16.4-33.9 16.3-.5 47.1c-.4 40.1-.7 47.4-2 48.6a723.2 723.2 0 0 1-62.1 29.6c-1.3 0-3.3-1-4.6-2.2l-2.3-2.1v-46.2c0-35.8-.3-46.5-1.3-47.2-.9-.7-192.1-93.2-220.8-106.8l-3.6-1.7-37 17.9a493 493 0 0 0-36.5 18.4l81.2 39.4c44.3 21.3 81.3 39.4 82.3 40.3 4.2 3.7.7 12.2-5 12.2-1.6 0-38.2-17.1-85.6-40-45.6-22-83-40-83.3-40-.2 0-.4 57.5-.4 127.8v127.8l107.8 52.1a8141.6 8141.6 0 0 0 109 52.2c1 0 1.2-26 1.2-127.4zM70 364a143 143 0 0 1-20.3-11.2c-3.2-4-1.8-8.8 3.2-10.9 2.9-1.1 4.1-.7 21.3 7.5 10 4.8 19.3 9.6 20.5 10.8a7 7 0 0 1 .5 9.6c-3.5 4.2-5.6 3.7-25.2-5.8zm14.6-28.6a530 530 0 0 1-34.8-17.7c-3.2-4.9-.6-11 4.8-11.6 2.2-.2 12.1 4.1 36.4 15.8a636.3 636.3 0 0 1 35.2 17.7c2.7 2.4 2.4 8.8-.4 10.8a9.5 9.5 0 0 1-4.8 1.5c-1.4 0-17.8-7.5-36.4-16.5zm292.4-75l19.5-9.4.3-39c.1-21.5-.2-39-.6-39-.5 0-9.7 4.2-20.5 9.4l-19.7 9.5v39c0 21.5.3 39 .8 39 .4 0 9.5-4.3 20.2-9.5zm-7.3-91.7a310.5 310.5 0 0 0 21.3-10.8c0-.7-213-103.3-214.4-103.3-.6 0-10.7 4.8-22.4 10.5l-21.3 10.4 106.8 51.7a9948.7 9948.7 0 0 0 107.8 51.7c.6 0 10.6-4.6 22.3-10.2zm70.3-33.8c16.2-7.9 29.8-14.5 30.2-14.9.4-.3-47.6-24-106.7-52.5L256 15.6l-31.2 15-31.1 15 19.8 9.7c11 5.2 59.3 28.6 107.4 52 48.1 23.2 88 42.2 88.5 42l30.5-14.5z" />
</svg>