<svg xmlns="http://www.w3.org/2000/svg" viewBox="0 0 512 512">
   <path fill="currentColor" d="M113.8 485.4c-2.2-2.3-2.3-3-2.3-13.2 0-6 .5-12.6 1.2-14.8a28.7 28.7 0 0 1 14.6-14.8c2.7-.9 13.6-1.2 35.9-1.2h32v-30.9h-66.8c-52.7 0-67.8-.3-71.6-1.3A37.2 37.2 0 0 1 32 388.5l-3.6-7.4V115.4L32 108a37 37 0 0 1 18.8-18.4c6-3 6.5-3 22-3.4l16-.3V29l2.3-2.4 2.4-2.3H418.7l2.3 2.3 2.3 2.4V86l16 .3 16 .3 7.3 3.7a37.5 37.5 0 0 1 20.3 25.3c1.9 7.1 1.9 258.4 0 265.5a38.2 38.2 0 0 1-27.6 28.1c-3.9 1.1-18.1 1.4-71.6 1.4h-66.8v30.9h32c22.3 0 33.1.3 35.8 1.2a28.7 28.7 0 0 1 14.7 14.8c.6 2.2 1.1 8.9 1.1 14.8 0 10.2-.1 11-2.3 13.2l-2.3 2.3H116.2Zm271.5-18.5c0-4.4-.4-5.8-2.3-7.7l-2.4-2.4H131.4l-2.4 2.4c-1.9 2-2.3 3.3-2.3 7.7v5.4h258.6zm-83.6-41v-15.4H210.4v30.9H301.7zM454 393.5c5.3-1.9 12.1-9 13.8-14.6.8-3 1-35.6 1-130.9 0-141.9.6-131.8-6.8-139.5-5.6-5.8-9.9-7-25.6-7h-13.2V117h13c12.3 0 12.9 0 15.1 2.3l2.4 2.4v237.7l-2.4 2.4-2.3 2.3H62.9l-2.3-2.3-2.3-2.4V121.7l2.3-2.4c2.2-2.3 2.8-2.3 15.2-2.3h12.9v-15.5h-13c-15.4 0-19 1-25 6.5-8.2 7.5-7.7-3.5-7.7 140.3s-.5 132.8 7.7 140.3c2.5 2.3 6 4.6 7.7 5.2 2.2.7 62.9 1 197.2 1.1 175 .1 194.5 0 198.5-1.4zm-365.4-153v-108H73.5v216.2h15.2zM408 217.5V86H104v262.6h304.2zM152 330.9a7.8 7.8 0 0 1-2.4-5.4c0-1.9.9-3.8 2.4-5.3l2.3-2.4h173.2l2.3 2.4a7.8 7.8 0 0 1 2.4 5.3c0 1.9-.9 3.9-2.4 5.4l-2.3 2.3H154.2Zm0-31a7.8 7.8 0 0 1-2.4-5.3c0-1.9.9-3.8 2.4-5.3l2.3-2.4h44l2.2 2.4a7.8 7.8 0 0 1 2.4 5.3c0 1.9-.9 3.9-2.4 5.4l-2.3 2.3h-43.9zm68.4 0a7.8 7.8 0 0 1-2.3-5.3c0-1.9.8-3.8 2.3-5.3l2.4-2.4h135.1l2.4 2.4a7.8 7.8 0 0 1 2.3 5.3c0 1.9-.9 3.9-2.3 5.4l-2.4 2.3H222.7zM152 269.2a7.8 7.8 0 0 1-2.4-5.4c0-1.9.9-3.8 2.4-5.3 2-2.1 3.2-2.4 9-2.4 6 0 7 .3 9.1 2.4a7.8 7.8 0 0 1 2.3 5.3c0 2-.8 3.9-2.3 5.4-2 2-3.2 2.3-9 2.3-6 0-7.1-.3-9.1-2.3zm38 0a7.8 7.8 0 0 1-2.3-5.4c0-1.9.8-3.8 2.3-5.3l2.3-2.4h165.6l2.4 2.4a7.8 7.8 0 0 1 2.3 5.3c0 2-.9 3.9-2.3 5.4l-2.4 2.3H192.2zm12.9-29.8a30.4 30.4 0 0 1-14-14.8 1160 1160 0 0 1 0-107 28.7 28.7 0 0 1 14.6-14.8c5.5-1.7 99.7-1.7 105.3 0a28.7 28.7 0 0 1 14.6 14.9 1160 1160 0 0 1 0 107 28.7 28.7 0 0 1-14.6 14.8c-5.3 1.5-101 1.5-106-.1zm104.1-16.6 2.4-2.3V121.7l-2.4-2.4c-2.2-2.3-2.8-2.3-15.2-2.3h-12.9v27.5c0 22.3-.2 28.1-1.4 30.3-2.5 5-5.3 5.1-14.5.6l-6.9-3.3-6.9 3.3c-8.1 4-10.5 4.1-13.6 1l-2.3-2.4v-57h-12.9c-12.4 0-13 0-15.2 2.3l-2.3 2.4V220.4l2.3 2.3 2.3 2.4h97.2zM256 155.6c1.1 0 3.3.6 4.8 1.5l2.8 1.4V117h-15.2v41.5l2.8-1.4a13 13 0 0 1 4.8-1.5zm182.6 85V132.4h-15.3v216.2h15.3zM408 55.2V39.7H104v30.9h304.2zm-294.3 5.3a7.8 7.8 0 0 1-2.3-5.3c0-2 .9-3.9 2.3-5.4 2-2 3.2-2.4 9.1-2.4 5.9 0 7 .3 9 2.4 3.2 3.1 3.2 7.6 0 10.7-2 2-3.1 2.4-9 2.4s-7-.3-9-2.4zm30.5 0a7.8 7.8 0 0 1-2.4-5.3c0-2 .9-3.9 2.4-5.4 2-2 3.1-2.4 9-2.4 6 0 7 .3 9.1 2.4a7.8 7.8 0 0 1 2.3 5.4c0 1.8-.8 3.8-2.3 5.3-2 2-3.2 2.4-9 2.4-6 0-7.1-.3-9.1-2.4zm30.4 0a7.8 7.8 0 0 1-2.4-5.3c0-2 1-3.9 2.4-5.4 2-2 3.2-2.4 9-2.4 6 0 7 .3 9.1 2.4a7.8 7.8 0 0 1 2.4 5.4c0 1.8-.9 3.8-2.4 5.3-2 2-3.2 2.4-9 2.4-6 0-7-.3-9.1-2.4z" />
</svg>