<svg xmlns="http://www.w3.org/2000/svg" viewBox="0 0 512 512"><path fill="currentColor" d="M248.6 447.1a12858 12858 0 0 1-199.3-23.4 32.5 32.5 0 0 1-22-26.3c-.5-5.3-.5-5.4-5.5-7.7a37 37 0 0 1-16.3-16.5l-2.7-5.5L2.5 227c-.2-122 0-141.5 1.3-146.5A33 33 0 0 1 29.5 56c3.5-.7 67.8-1 204.4-.8l199.3.3 6 2.8a36.4 36.4 0 0 1 17.4 18.3c2 5.1 2.3 7.8 2.6 29.2.5 23.1.5 23.6 2.6 24 1.2.3 6.2 1 11.1 1.5 14 1.6 18.4 3.3 25.2 9.6a34 34 0 0 1 11.4 20.7c.7 5.4-24.5 278-26.2 284a33.6 33.6 0 0 1-31.6 23.4c-5.4.3-63.8-6-203.1-21.8zm211.6 2.2c2.1-1.4 4.6-4.1 5.5-6 1.3-2.6 4.7-36.2 14.7-142.8l13-139.4-2.3-4.8c-3.5-6.9-7-8.8-17.5-9.6-4.8-.4-10-1-11.4-1.2l-2.7-.5v106.4c0 68.5-.4 108.7-1 112.7a33.6 33.6 0 0 1-18.6 25.5l-5.7 3-195.2.2-195.2.2.6 2.8c1 3.8 5 8.8 8.8 10.8 2.4 1.2 52 7.2 197.5 23.7 107 12.2 196.9 22 200 21.9 4-.2 6.6-1 9.5-2.9zM432 374.8c4.1-1.7 8.2-6.6 9.6-11.3.6-2.4 1-34.5 1-92.7v-89H19.2V363l2.3 4.3c1.5 3 3.6 5 6.6 6.6l4.3 2.3h198.2c165.1 0 198.7-.3 201.4-1.4zm-164.6-34.7l-2.8-2.4-.3-38.7c-.2-26.3 0-40 .8-42.8 2-7.3-1.1-7 77.4-6.7l69.5.2 2.4 2.8 2.4 2.8v40c0 27.3-.3 40.9-1 42.5-.7 1.4-2.3 3-3.6 3.5-1.7.8-23.2 1.1-72.2 1.1h-69.8zM400 295.8v-29.7l-59.3.2-59.2.3-.3 29.5-.3 29.5H400zM39 264.1a8.4 8.4 0 0 1 2-13.6c3.2-1.6 112-1.8 116.7-.2 5.4 1.9 7 9.2 2.8 13.4l-2.4 2.4H99.5c-57 0-58.6 0-60.5-2zm144.6 1c-2.7-1.6-4.2-7.4-2.6-10.6 2.1-4.5 5-5.2 20.1-5.2 15.2 0 18 .7 20.2 5.2a9 9 0 0 1-2.6 10.2c-2 1.6-32.4 2-35 .4zM39.7 231a9 9 0 0 1-2.5-10.2c2.5-5.2 3.2-5.3 42.8-5l36.5.2 2 2.4c2.8 3.5 2.5 9.4-.8 12-2.5 2-3.7 2-39.4 2-29 0-37.2-.4-38.6-1.4zm101-.7c-3.2-2.5-3.5-8.4-.6-12l1.9-2.3 36.5-.2c39.6-.3 40.3-.2 42.8 5 1 2 1 3.5.2 5.8-2 5.8-1.2 5.7-41.3 5.7-35.8 0-36.9 0-39.4-2zm301.9-90.6v-25.3H19.2v50.5h423.4zm-.2-44.5a30 30 0 0 0-3.1-15.7 20.2 20.2 0 0 0-6.6-5.5l-4.4-2.3H230.7c-137.1 0-198.4.4-200.3 1a20 20 0 0 0-9.9 9.7c-.7 1.7-1.3 5.8-1.3 9.1v6l211.4-.2c206.2-.3 211.5-.3 211.8-2.1z"/></svg>