<svg xmlns="http://www.w3.org/2000/svg" viewBox="0 0 512 512">
   <path fill="currentColor" d="M304 510.2c-1.9-1-4.3-3.2-5.4-5.1-1.9-3.3-2-4.2-.7-28.7.7-14 1.7-27 2.3-29 .5-2.1 28.6-61.4 62.3-131.9 42.8-89.5 62.4-129.3 64.9-132.2 2-2.3 6.2-5.4 9.4-7 4.9-2.4 6.9-2.8 14.2-2.8 7.3 0 9.2.4 13.6 2.7a32 32 0 0 1 17.4 34c-.6 3-12.5 29-31 67.7l-30 62.6v115l-2.3 5.6c-3 7.2-7 12.1-13.2 16.4-8 5.5-14 6.5-38 6.5h-21l-14 12.6c-17.6 15.9-21 17.4-28.5 13.6zm22.5-29.6l11.4-10.2c1.1-1-.3-2-8.5-6.2-14.4-7.2-14.2-7.2-14.8-2a360 360 0 0 0-1.2 17.3c-.6 12.5-.5 13 1.3 11.4l11.8-10.3zm67.5-14.9c2.4-1.2 5.8-4 7.4-6l3.1-3.9.3-40.6c.1-22.3 0-40.4-.2-40.1-.4.4-30 62-39.7 82.7l-4.8 10.2h14.7c13.4 0 15.2-.2 19.2-2.3zm.4-106.3c25.1-52.6 45.6-95.7 45.4-95.9-.9-.7-28.2-13.5-28.3-13.3-.4.4-90.6 189-91.2 190.6-.3.8 4.2 3.5 12.8 7.6 7.4 3.6 13.9 6.5 14.4 6.5.6 0 21.7-43 46.9-95.5zm55-115.3l2.5-4.8-13.7-6.7c-7.6-3.6-14.1-6.6-14.5-6.6-.8 0-4.7 7.4-4.7 9 0 .8 25 13.6 27.2 14 .4 0 1.9-2.2 3.2-4.9zm17.1-37.8c.7-4.5-2.5-11.6-6.6-14.6-2.9-2-9.5-3.3-13.3-2.3-4.4 1-8.6 5.7-12.7 13.8l-4 7.9 14.3 6.8 14.3 6.8 3.7-7.3c2-4 4-9 4.3-11zM64 482.4a36.9 36.9 0 0 1-24.6-22.8c-1.8-5-1.9-10.6-1.9-181.6V101.5l2.4-6c2.2-5.6 5.4-9 43.5-47.3C119.6 11.8 125.3 6.5 131 3.7l6.5-3.2h257l5.7 2.7a39 39 0 0 1 17.6 17.6l2.7 5.7.3 78.5c.1 43.2 0 79.5-.3 80.7-.7 2.9-5.7 5.5-9 4.7-1.3-.3-3.2-1.5-4.2-2.6-1.7-1.9-1.8-6.3-2.3-80.7-.4-59-.8-79.1-1.7-80.7-2-3.6-8-8.2-12-9.4-2.7-.8-40.2-1-126.3-.8l-122.5.3L142 52c-.3 24.2-.9 36.3-1.7 38.1a31.2 31.2 0 0 1-11.7 12.2c-4 2.1-5.5 2.2-39.6 2.7l-35.5.5-.3 171.9c-.1 117.1.1 173.1.8 175.7 1.4 5 6.4 10.7 11.5 13 3.8 1.8 9.5 1.9 106.3 1.9h102.3l2.4 2.5c3 3 3.2 7.4.6 10.6l-2 2.4-102.8.2c-88 .2-103.6 0-108.3-1.3zm58.5-395c1.4-.9 3-3.2 3.5-5.3 1.1-4.1 1.4-54.1.2-54.1-.4 0-14.4 13.7-31.2 30.5L64.5 89h27.8c23.8 0 28.1-.2 30.2-1.6zm-18 339.2c-4-1.7-8.4-6.3-10.1-10.3-1.7-4-2-41.6-.3-46A23.7 23.7 0 0 1 106 359c2-.5 12-1 22.5-1 20.6 0 24.3.8 29.2 6.1 4.7 5.1 5.3 8.6 5.3 29.1 0 16.6-.3 19.8-1.9 23.3-2.2 4.7-6.4 9-10.4 10.4-4.3 1.6-42.4 1.4-46.2-.3zm42-33.6v-18.5h-37l-.3 17.5c-.1 9.6 0 18 .3 18.7.3 1 4.4 1.3 18.7 1l18.3-.2zm47.9 21.6a7.5 7.5 0 0 1-2-12.4c2.2-2.2 2.3-2.2 50.2-2.2h48l2.2 2.3a7.6 7.6 0 0 1-3 12.6c-5 1.7-91.3 1.4-95.4-.3zm-2.2-33a8.4 8.4 0 0 1-.3-10.7l2-2.4 53.8-.3c29.6-.1 54.8 0 56 .3 6.4 1.5 8.5 9.6 3.7 13.4-2.6 2-3.5 2.1-57.9 2.1h-55.2zm-89-45.7a20.5 20.5 0 0 1-7-6.2c-2.7-4-2.7-4.3-3-24.1-.2-11 0-21.6.3-23.4.8-4.2 6-10 11-12.3 3.4-1.6 6.8-1.9 23.5-1.9 21.8 0 25.1.8 30.3 6.9 4.3 5.2 4.9 8.9 4.5 30.7-.3 19.3-.4 20.2-2.7 23.6-1.3 1.9-4 4.6-6 5.9-3.3 2.3-4 2.4-25 2.7-20.5.2-21.8.1-26-2zm43.3-32.9v-18.5h-37l-.3 17.5c-.1 9.6 0 18 .3 18.7.3 1 4.4 1.3 18.7 1l18.3-.2zm47.8 23c-4.7-1.9-5.8-9.2-2-12.8l2.3-2.2h68.6c37.8 0 69.4.3 70.3.6 1.8.7 4.5 5.5 4.5 8 0 .8-1.3 2.9-3 4.5l-2.8 2.9h-67.9c-37.3-.1-68.8-.5-70-1zm-2.3-33a8 8 0 0 1-2-5.5 8 8 0 0 1 2-5.5c2-2 3.3-2 79.4-2H349l2.1 2.7a7.5 7.5 0 0 1-1.1 10.6c-2 1.6-7.3 1.7-79 1.7-75.6 0-77 0-78.9-2zm-88.8-47.1a20 20 0 0 1-7-6.2l-2.7-4v-45.5l3-3.9c1.7-2 5.1-4.8 7.5-6 4.1-2.2 5.6-2.3 24-2.3 21.8 0 25.1.8 30.3 6.9 4.3 5.2 4.9 8.9 4.5 30.7l-.3 20-2.9 4.2c-5.1 7.4-8.1 8.2-31.7 8.2-18.8 0-20.7-.2-24.7-2.1zm43.3-32.9v-18.5h-37l-.3 17.5c-.1 9.6 0 18 .3 18.7.3 1 4.4 1.3 18.7 1l18.3-.2zm46.1 23c-2-1.7-2.6-3-2.6-6s.6-4.3 2.6-6c2.7-2 3.2-2 85.3-2 80.9 0 82.8 0 84.8 2 1.2 1 2.4 2.9 2.8 4 1 3-1.2 7.5-4.1 8.9-1.8.8-25.6 1.1-84.3 1.1-81.3 0-81.8 0-84.5-2zm1.8-30.4A8 8 0 0 1 192 193c2-2 3.3-2 85.5-2h83.6l2.4 2.5c3.2 3 3.2 6.6 0 10.2l-2.3 2.8-81.9.2c-67.2.2-82.4 0-84.9-1.1zm84.1-40a65.7 65.7 0 1 1 26.9-128.7 65.7 65.7 0 0 1-26.9 128.6zm25-16c5.7-1.5 13-4.7 16-6.8 1.8-1.5 1.8-1.6-.4-5-2.5-4.1-7.8-9-12-11.2-2.4-1.3-3.3-1.3-6.7 0-5 1.7-11 1.8-16.7 0-4.5-1.3-4.8-1.3-9 1.4-5.2 3.2-11.9 10.8-11.5 13 .4 2 9 6.6 15.9 8.4 6.9 1.9 18 2 24.4.2zm-39.2-34.2l2.8-2-1.7-4c-4.2-10-.9-23 7.8-31A28 28 0 0 1 320 99.7c0 2.8-.7 7-1.5 9.4l-1.5 4.5a42 42 0 0 0 4.8 3.8c2.6 2 6 5.3 7.7 7.6 1.6 2.2 3.3 4 3.6 4 1.4.1 7-14 8-20.7A50.1 50.1 0 0 0 284.3 52a50 50 0 0 0-36.7 72.2l2.5 5 5.7-5.8c3.1-3.3 7-6.8 8.5-8zm33-5c4.2-1.9 6.7-6.2 6.7-11.3 0-3.3-.7-4.9-3.3-7.7a12 12 0 0 0-20.6 4c-1.3 3.3-1.3 4.4 0 8a12.2 12.2 0 0 0 17.3 7z" />
</svg>