<svg xmlns="http://www.w3.org/2000/svg" viewBox="0 0 546.1 546.1">
   <path fill="currentColor" d="M4 456.3c-1.6-.8-3.2-2.6-3.5-4-.5-13.7-.6-67.5-.3-81.2.3-38.3.4-39 2.8-44.5 4-8.7 10.7-14 28.8-23.2A95.6 95.6 0 0 0 49.5 293c1.3-1.8 1.7-5 1.7-12.2V271l-7.8-7.8c-13.3-13.4-17.7-26-17.8-50.6 0-24 4.3-35.8 18.1-49.5l8-8V146a33.5 33.5 0 0 1 63.5-15.4c2.2 4.4 2.7 7 2.7 15.1v9.8l4.8 3.7c9.2 7.2 18 21.7 20.2 33.6 1.4 7.4 1.4 33.3 0 40.8a63.6 63.6 0 0 1-23.6 36.1c-1.5 0-1 19.5.5 22.4.7 1.5 3.5 4 6.3 5.4 6.8 3.7 9.4 6.2 9.4 9.3 0 3.8-1.8 6.3-5.3 7.5-2.7 1-4.2.6-10.5-2.4l-7.4-3.6-9.8 9.8-9.7 9.8v42c0 27.4-.4 102.6-1.1 104-2.8 5-11.2 4.6-13.7-.8a3134 3134 0 0 1-1.2-104V328l-9.7-9.7-9.6-9.7-16.8 8.5c-6 3-11.9 6-17.7 9.4-.7.6 3.3 5.4 10.3 12.4C49.6 355.2 49.5 355 50 385.4c.2 13.4.1 85.5-.2 86.9-1 3.7-6.5 6.2-10.2 4.6-4.9-2-5.4-64.6-5.4-88.9 0-16.7-.3-23.2-1.5-25.8-.8-1.9-4.8-6.7-9-10.8l-7.6-7.5v33.8c0 18.5-.3 74.5-.7 75.5-.6 1.6-5.7 4.8-7.5 4.8-.5 0-2.2-.8-3.8-1.7zm90.6-152.7l8.8-8.8-.7-8.2-.6-8.3-2.8.8c-3.5 1-24.1 1-28.5 0l-3.4-.7-.4 7.6-.4 7.7 9 9.4c5 5.1 9.4 9.3 9.7 9.3.4 0 4.5-4 9.3-8.8zm3.4-40.9a44 44 0 0 0 29.9-38.1 41 41 0 0 0-8 .7 66.8 66.8 0 0 1-47.2-13.8 25 25 0 0 0-5-3.6 66 66 0 0 0-7.7 4.3c-4 2.3-9.7 5-12.8 6-6.5 2-6.7 3-4 13.6a42.8 42.8 0 0 0 54.8 31zm24.6-53.9l5.4-1.1v-5c0-24.3-24.2-44.2-49.2-40.7a44.5 44.5 0 0 0-36.6 36.6l-.7 5 3.8-1.5c4.4-1.9 8.8-4.8 14.9-10 6.4-5.3 9.9-4.8 17.3 2.4a49.8 49.8 0 0 0 45.1 14.3zm-45-62.7a67 67 0 0 1 22.4 1.4c2.2.7 2.4.4 2.4-3.3 0-10-10-18.4-20-16.9-6.4 1-13.6 7.6-14.7 13.7-.8 4.3 0 7.6 1.6 6.6.5-.3 4.2-1 8.2-1.5zm79.6 309.4l-3-2.6-.4-93.7c-.3-57.6.2-64.8 4.7-74 3-6 9.7-13.4 15.4-17a451 451 0 0 1 28.2-13.3c13.5-6 25.4-11.8 26.4-13 1.4-1.7 1.9-4.2 1.9-10.3v-8l-6.2-6.6a66.2 66.2 0 0 1-18.4-40.3c-1-8.7-1.5-10.3-4.2-13-4.4-4.6-5.8-12.2-5-26.7 1-14.6 2-19.3 7.2-30A68.3 68.3 0 0 1 247 70.6c9.2-2.8 43-2.8 52.1 0a68.4 68.4 0 0 1 43.3 36.5 57.7 57.7 0 0 1 6.7 27.3c.1 8.3-1.6 13.3-5.5 16-1.6 1.3-2 3.6-2.6 15.9-.4 7.9-1.5 17.2-2.4 20.8a71.5 71.5 0 0 1-16 29.2l-6.9 7.4v8c0 6 .5 8.5 1.9 10.2 1 1.2 13 7 26.4 13a500 500 0 0 1 28.3 13.3 50 50 0 0 1 15.3 17c4.6 9.2 5 16.4 4.7 74l-.3 93.7-3 2.6c-3.6 3-7.5 2.7-10.6-.9-1.7-2-1.9-46.4-1.9-97.5 0-30.5-.4-55.4-.8-55.4a217 217 0 0 0-23.8 24.6c-1.2 2-1.6 11.5-2 44.5-.6 41.3-.6 101.8-3 104.1a8 8 0 0 1-10.9.4c-2-1.8-2.1-63.2-2.1-104.4 0-53.4-1.4-48.4 19.5-69.9 15-15.4 15-15.4 12.8-17.5a507.6 507.6 0 0 0-50.8-23.4c-.7 0-8.8 7.6-18 16.8l-16.9 16.9v59.8c0 58.6 0 119.8-2.1 121.7a9.1 9.1 0 0 1-5.3 2c-1.8 0-4.2-.9-5.4-2-2-1.9-2.1-63.1-2.1-121.7v-59.9L248.8 277c-5.6-6-11.6-11.6-18-16.8-2.5 0-48.8 21.3-51 23.4-2 2.1-2 2.1 13 17.5 20.9 21.5 19.5 16.5 19.5 70 0 41.1-.1 102.5-2.2 104.3a8.3 8.3 0 0 1-11-.4c-2.3-2.3-2.3-62.8-2.8-104.1-.5-33-.9-42.4-2-44.5-7.3-8.8-15.2-17-23.8-24.6-.5 0-.9 25-.9 55.4 0 51.1-.1 95.5-1.9 97.5-3 3.6-7 4-10.5.9zm131-191.8l14.6-14.6-1.5-3.7c-.9-2-1.6-5.5-1.6-7.8s-.1-4.1-.3-4.1l-8.7 2.1a75.7 75.7 0 0 1-35.2 0l-8.7-2.1c-.2 0-.4 1.8-.4 4.1a24 24 0 0 1-1.5 7.7l-1.6 3.6 14.6 14.7c8 8 14.8 14.7 15.1 14.7.3 0 7.1-6.6 15.2-14.6zm0-44c8-2.4 15.3-6.9 21.1-13a51.7 51.7 0 0 0 15.4-39.8l.1-10.6-14.4.3c-16.9.2-29.5-1.7-41.4-6.3-9.9-4-19-9.6-26.8-16.7-2.8-3.6-2.9-9 0-11.6 3.5-3.2 7.4-2.4 14.4 3a76 76 0 0 0 26 13.1c5.4 1.5 11 2 24 2 9.5 0 19.5-.4 22.3-.8l5.2-1-.7-6a53.1 53.1 0 0 0-40.6-46.5 119 119 0 0 0-39.5 0 53.5 53.5 0 0 0-38 34.4 70 70 0 0 0-2.7 19.1c-.7 15.4-.7 15.4 8.9 8.8a24 24 0 0 1 9.2-4.2c3.9 0 7.2 3.4 7.2 7.6 0 3.8-4.6 8.7-12 12.9l-4.6 2.5.3 5.8c.6 12.9 6 25 15.2 34 5.7 6 12.9 10.5 20.8 13 10 2.7 20.6 2.7 30.6 0zM440.9 477a7.9 7.9 0 0 1-3.5-3c-.8-1.5-1.1-80.2-1.1-117v-54.7l-10-9.9-9.9-9.9-3.1 1.7c-4.4 2.3-6.6 2-9.6-1-4-4-3.4-7.6 1.9-12.4 4.3-4 4.5-4.4 4.9-11.6l.4-7.5-4.3-4.7c-8.4-9-13-21.3-13-34.6 0-7.7 0-7.8-3.2-8.9-1.8-.6-3.7-2-4.3-3-1.7-3.3-1.2-26.2.7-34a51.3 51.3 0 0 1 34.5-36 126 126 0 0 1 45-.1 51 51 0 0 1 28 20.5c6.4 9.6 8.2 16.2 8.9 32.5.5 13.7.4 14.6-1.8 17.4-1.3 1.6-3.3 2.9-4.4 2.9-1.8 0-2 .8-2 6.9a53 53 0 0 1-12.2 35c-4.7 5.8-5 6.4-5 12.8 0 4.4.6 7.5 1.8 9.1 1 1.4 12 7.6 26.2 14.7 27.1 13.6 33 17.9 37.3 27.4 2.5 5.5 2.5 5.8 2.8 53 .2 26.1 0 88.6-.3 89.9-.3 1.3-2 3.1-3.9 4-2.7 1.5-3.8 1.5-6.4.5-1.6-.7-3-1.8-4.1-3.2-.7-1.2-1-60.8-1-88.7v-46.7l-7.6 7.5a54 54 0 0 0-9.1 10.8c-1.2 2.7-1.5 11-1.5 38.6 0 24-.4 96-1.2 97.9-1.8 4-6.3 5.5-10.4 3.4-1.8-1-3.6-2.8-3.9-4.1-.3-1.4-.5-79.2-.3-99.7.4-44.5 0-43 13.7-56.6 4.7-4.7 8.5-8.8 8.5-9.3 0-.4-10.6-6.1-23.6-12.6L471 282.4l-9.4 9.4-9.4 9.4v54.6c0 37.8-.4 115.4-1.2 117.2-.8 1.6-2.2 3-3.8 3.8-3 1.4-3.3 1.4-6.4.1zm12.5-199.2c8.5-8.5 9-9.3 8.7-12.9-.5-3.7-.6-3.8-3.8-3-4.4 1.2-23.7 1.3-28.1.1-3.3-.8-3.4-.7-4.1 3-.8 3.9-.5 4.2 8.1 13 5 4.9 9.2 8.9 9.5 8.9.3 0 4.6-4 9.7-9zm5.6-33.4c7.2-3.7 13-9.6 16.5-17 2.2-4.9 2.7-7.7 2.8-15l.1-9.2-5.3-.8c-12.2-2-26.1-5.6-35.2-9.3l-9.7-4-5 3.4a66 66 0 0 1-9.4 5.3l-4.2 2v9.9c0 12 2.4 19.3 8.5 26.2 10.3 11.6 27 15 41 8.5zm28.3-65.2c-1-15-8.1-25.9-21-31.8-4.7-2.2-8-2.8-17.7-3.2-19.5-.8-29.7 2.3-38.4 11.5a35 35 0 0 0-9.1 24.1v7l6.3-3.4c3.5-1.9 8.3-5 10.6-7 7-6 8.4-6.2 17.4-1.9 15 7.2 35.3 12.8 48.2 13l4.1.2z" />
</svg>