<svg xmlns="http://www.w3.org/2000/svg" viewBox="0 0 512 512">
   <path fill="currentColor" d="M135.7 494.7a30 30 0 0 1-6.6-3.7C126 488.6 24 338.2 18.9 328.3c-4.2-8-2.4-20.2 4-26 1-1.2 33.6-23.1 72.1-48.9l70.2-46.9 70.8-90.4c39-49.7 72-91.5 73.3-92.9 4.4-4.7 9.3-6.6 16.6-6.6 4.5 0 7.5.4 9.5 1.6 1.7.9 18.4 13.6 37 28 99.8 78 115.2 90.1 117.9 93.1a22.5 22.5 0 0 1 4.8 18.7c-1.2 5.8-2.5 7.5-21.6 31.8a118.3 118.3 0 0 0-12 17c.2.5 6 9.3 12.9 19.6 6.8 10.3 13 20 13.7 21.7a27.4 27.4 0 0 1-.4 17.8c-1 2-3.4 5.2-5.4 7-2 1.9-38 26.2-80.1 54.4l-76.5 51-37.4 47.9a1928 1928 0 0 1-40.6 50.7 22.7 22.7 0 0 1-17.5 5.7c-6.4-.6-8.1-1.7-20.6-11.2a48.1 48.1 0 0 0-11.3-7.5l-23.1 15.4c-26 17.3-30 18.7-39.4 15.4zm30-26a265.3 265.3 0 0 0 20-14c0-1.9-12.1-11.4-18.8-14.8a63.2 63.2 0 0 0-55.5-.3c-1.2 1.2 25 40.3 27.7 41.4 4.7 2 6.7 1 26.6-12.3zm72.5-2.5c3-2.6 48.6-60.4 48.2-61a2506.1 2506.1 0 0 0-73.9 49.4c-.5.7 11.3 10.5 15.8 13.1 3.2 1.9 6.9 1.3 9.9-1.4zm87.2-104.4l79.4-53 17-11.4-3.1-7.3a77.3 77.3 0 0 1 5.2-69.4c1.8-3 6.2-8.5 10-12.3l6.6-7-18.3-27.4-18.2-27.4-8 3.3a76.5 76.5 0 0 1-83-16.8l-5.3-5.2-6.9 4.5a29.2 29.2 0 0 1-9 4.6c-3.5 0-6.7-3.5-6.7-7.2 0-3.8-.2-3.7 39.5-30.2 31.7-21 33.2-21.7 42.4-20.4 9.5 1.4 9.4 1.4 48.8 60a1945.4 1945.4 0 0 0 36.9 54c1 0 26.4-32.9 28.1-36 1.7-3.4.8-7.2-2.4-10.1-1.4-1.3-27.9-22.1-58.8-46.3l-73.4-57.2c-17.8-14-20-15-24.6-12.6-1.6 1-117.2 147.4-117.2 148.6 0 .3 11.8-7.3 26-16.9 19.8-13 26.7-17.3 29-17.3 5 0 8.2 5.8 5.6 9.8-.7 1.3-41.6 29.1-90.8 62l-89.6 60s1 3.1 2.6 6.8a67.5 67.5 0 0 1 5.9 30.2c0 21.5-9 42.1-24 55.5l-3.8 3.3 18.5 27.8 18.5 27.7 4.6-2.3a77.8 77.8 0 0 1 46-5.6 75.3 75.3 0 0 1 39.4 20.4l6 6 32.4-21.7zm-217 24.5c-2.6-2-3.2-5.2-1.5-8.4 1-1.9 33-23.7 36.9-25.1 2.6-1 7.6 1 8.4 3.2 1.2 3 .7 5.8-1.9 8.1a293.5 293.5 0 0 1-37.5 24.2c-.9 0-3-1-4.4-1.9zM227.5 376c-31.8-9-56.3-35-64.5-68a92 92 0 0 1 85.1-112.5 92.8 92.8 0 0 1 93.8 66.8c2.3 7.6 2.5 9.8 2.6 24.3 0 13.9-.2 16.9-2 23.9a93.8 93.8 0 0 1-53 61.6 50.3 50.3 0 0 1-12.1 3.7c-3.7.5-4.5.2-5.8-1.6-2-3-2-7.7.2-9.6.9-1 4-2.4 7-3.4a78.7 78.7 0 0 0 44.7-39.8 74.4 74.4 0 0 0 7.5-33.9c0-61.1-65.6-98-118.9-67-8 4.8-22.3 19.7-27 28.1a77.8 77.8 0 0 0 12 93.4 76.9 76.9 0 0 0 36.2 21c4 1.2 7.8 2.7 8.5 3.6 1.7 2.2 1.4 7.5-.8 9.5-2.3 2.4-5.2 2.3-13.5 0zm52.7-35.6a13 13 0 0 1-3.5-4l-2-3.2-5.4 2.2a51.4 51.4 0 0 1-11.6 2.8c-5.8.6-6.4.5-8.6-1.8-3-2.8-3.1-6-.5-9.4 1.4-1.9 2.8-2.4 5.2-2.4 3.9 0 11.4-2 12.1-2.9.2-.4-4-7.5-9.5-15.8l-10-15-6.7.6c-12.4.9-22-3.8-27.2-13.3-1.5-3-1.9-5.4-1.9-11.8 0-7.3.2-8.4 3.1-13.7l3.2-5.7-2-2.8c-2.7-3.7-2.6-7.3.3-10.1 3.8-4 9-2.5 12.4 3.6 1 1.6 1.2 1.6 5.9.2 9.8-2.9 17.4-1.3 17.8 3.7.6 6.3-1.9 8.9-8.4 8.9-2.6 0-4.9.4-5.2 1-.3.4 2.8 5.8 7 12l7.5 11.2 9.7-.5c16-1 23.3 2.8 29 14.5 2.8 5.7 3 7.2 3 14.3 0 6.7-.3 8.7-2.5 13.1a63.8 63.8 0 0 1-3.9 7c-1.3 2-1.3 2.3 1 5.4 2.8 4.4 2.8 7.7 0 10.6-2.5 2.4-5.7 2.9-8.3 1.4zm.2-37.3c0-9-6.2-16-14.4-16-2.4 0-4.4.3-4.4.9 0 .5 3.8 6.2 8.2 12.7l8.1 12 1.3-2.8c.5-1.5 1-4.6 1.2-6.8zm-49-34.2c-6.4-9.7-7.8-10-7-1.3.6 6.1 4.1 10 9.3 10h3.6zm123.9-48.5c-1.3-1.3-1.9-2.8-1.6-5.3.3-3.4.7-3.8 18.6-15.9C391.9 186 394 185 398 189.1c5.2 5 3.1 7.7-17.4 21.5-18.7 12.5-21.6 13.6-25.3 9.8zM72.7 341.9c1.8-3.7 4-9.4 4.8-12.7A80 80 0 0 0 78 300c-1.8-6.6-5-14-6-14-.4 0-9.7 6-20.4 13.1-25.7 17.4-25.3 16.2-13.1 34.4l13.1 19 6.1 8.8 6-6.4c3.6-3.8 7.1-9 9.1-13.1zm380.7-65.6c9.8-6.6 18.7-13 20-14.4 4.1-4.6 3.2-7-11.1-28.4a217.5 217.5 0 0 0-14.1-19.7 57.7 57.7 0 0 0-18.4 27.7c-2.2 6.6-2.6 9-2.6 18.7 0 8.5.4 12.7 1.7 17 2.6 8.7 4.2 12 5.5 11.4.7-.2 9.2-5.9 19-12.4zm-73.5-136c6.5-1.4 16-5.1 15.6-6-1.4-3-25.9-38.5-27.4-39.7-4.3-3.6-6.7-2.5-28.3 11.8l-20.2 13.5 3.7 3.7a63.2 63.2 0 0 0 56.6 16.7z" />
</svg>