<svg xmlns="http://www.w3.org/2000/svg" viewBox="0 0 129.38 64">
   <path d="M57.18 35.22h-3.86l-1.14-2.8h-5.53l-1.15 2.8h-3.85l6.17-14.98h3.33v.07zm-9.43-5.62h3.43l-1.7-4.58zm14.7 5.95a6.87 6.87 0 0 1-4.64-1.51l-.06-.07 1.5-2.28.1.08c.36.3.77.57 1.2.77.49.19 1 .29 1.52.3.39.01.79-.07 1.14-.23a.7.7 0 0 0 .4-.65.58.58 0 0 0-.4-.57 3.5 3.5 0 0 0-1.15-.16h-1.37v-2.38h1.05c.39 0 .77-.06 1.14-.18a.6.6 0 0 0 .4-.56.59.59 0 0 0-.42-.53c-.31-.13-.65-.19-.99-.18-.43 0-.88.08-1.28.26-.38.16-.74.36-1.06.63l-.1.08-1.36-2.3h.1a10 10 0 0 1 1.75-.96c.77-.25 1.59-.37 2.4-.36 1.24-.06 2.45.3 3.43 1.05.52.5.8 1.18.78 1.89.04.65-.2 1.3-.64 1.76a2.7 2.7 0 0 1-.62.46c.43.13.82.36 1.15.65.48.44.73 1.07.7 1.7.02.82-.31 1.6-.9 2.15a5.07 5.07 0 0 1-3.76 1.14zm10.94 0a4.93 4.93 0 0 1-3.85-1.54 5.26 5.26 0 0 1-1.5-3.77 5.66 5.66 0 0 1 1.6-4.06 5.04 5.04 0 0 1 3.57-1.39 3.98 3.98 0 0 1 3.05 1.25v-.93h3.44v10.1h-3.44v-.94a3.44 3.44 0 0 1-2.87 1.28zm.63-7.8c-.63 0-1.25.25-1.7.68a2.43 2.43 0 0 0-.72 1.72c0 .63.22 1.24.64 1.7.5.48 1.16.74 1.85.74a2.44 2.44 0 0 0 1.67-4.18 2.63 2.63 0 0 0-1.74-.65zm13.14 7.47h-3.43v-7.3h-2.75v-2.8h8.9v2.79h-2.72zm9.79 0H93.5v-7.3h-2.74v-2.8h8.84v2.79h-2.66zm17.24 0h-3.44v-10.1h3.44zm-8.1 0h-5.48v-10.1h3.43v3.43h2.13a3.96 3.96 0 0 1 2.82.96c.58.62.9 1.44.87 2.29a3.3 3.3 0 0 1-.94 2.52c-.79.65-1.8.97-2.83.9zm-2.01-2.48h1.26c.32.03.65-.05.92-.23a.94.94 0 0 0 .28-.68.75.75 0 0 0-.28-.61 1.67 1.67 0 0 0-.9-.23h-1.28zM126.5 38h-3.11v-2.78h-.8l-3.24-4.13v4.18h-3.44V25.1h3.44v3.74l3.16-3.74h4.35l-4.42 4.7 2.29 2.6h1.84zM46.87 55.9h-3.7V40.93h5.41c1.46-.1 2.89.35 4.03 1.24a4.61 4.61 0 0 1 1.5 3.67 4.83 4.83 0 0 1-1.31 3.55 5.23 5.23 0 0 1-3.92 1.34h-2.01zm0-8.19H48a2.6 2.6 0 0 0 1.8-.51c.38-.37.58-.86.58-1.39.03-.51-.17-1-.54-1.36-.53-.4-1.2-.6-1.86-.53h-1.07zm12.94 8.53a4.93 4.93 0 0 1-3.84-1.55 5.26 5.26 0 0 1-1.5-3.76 5.63 5.63 0 0 1 1.65-4.07 5.04 5.04 0 0 1 3.57-1.38 3.98 3.98 0 0 1 3.05 1.25v-.92h3.44v10.1h-3.44v-.98c-.7.9-1.8 1.39-2.93 1.3zm.63-7.8c-.63 0-1.25.24-1.7.68a2.43 2.43 0 0 0-.71 1.72c-.03.64.2 1.27.64 1.75.5.48 1.15.74 1.84.74a2.44 2.44 0 0 0-.07-4.89zM80.03 58.7H76.9V55.9h-6.67v2.78h-3.1v-5.43h.1c.48-.04.94-.26 1.3-.6.7-.8 1.01-1.86.85-2.9v-3.95h9.16v7.44h1.49zm-8.4-5.44h3.43v-4.78H72.6v1.83a5.6 5.6 0 0 1-.24 1.84c-.16.42-.41.8-.73 1.11zm20.49 2.66h-3.44v-5.52l-4.12 5.52H81.3V45.8h3.43v5.43l4.14-5.43h3.19zm7.02.33a6.42 6.42 0 0 1-4.48-1.63 5.33 5.33 0 0 1 0-7.5 7 7 0 0 1 8.96 0 5.33 5.33 0 0 1 0 7.5 6.37 6.37 0 0 1-4.48 1.63zm0-7.84c-.65-.03-1.29.23-1.76.67a2.6 2.6 0 0 0 0 3.57c.48.46 1.12.7 1.79.68 1.3.03 2.4-.98 2.44-2.3v-.16a2.38 2.38 0 0 0-2.47-2.46zm12.68 7.84c-1.48.04-2.91-.5-3.99-1.52a5.21 5.21 0 0 1-1.61-3.84 5.39 5.39 0 0 1 5.62-5.45 6 6 0 0 1 2.6.56v3.28l-.12-.12a3.13 3.13 0 0 0-2.06-.73 2.37 2.37 0 0 0-2.48 2.26v.2c-.01.63.22 1.24.64 1.7.5.51 1.18.79 1.89.77a3.17 3.17 0 0 0 2.01-.76l.18-.15v3.18a5.1 5.1 0 0 1-2.68.62zm17.56-.33h-3.44V45.8h3.44zm-8.09 0h-5.49V45.8h3.43v3.43h2.12a3.96 3.96 0 0 1 2.82.97c.58.61.9 1.44.87 2.29a3.3 3.3 0 0 1-.94 2.51c-.77.63-1.74.95-2.74.9zm-2.01-2.49h1.22c.33.04.65-.04.92-.23a.94.94 0 0 0 .28-.67.79.79 0 0 0-.28-.63 1.75 1.75 0 0 0-.9-.22h-1.24z" />
   <path d="M41.6 19.3c-5.5.64-7.03 6.34-11.16 11.26-5.53 6.57-13.74 3.2-13.74 3.2 5.53-.69 7.11-6.44 11.35-11.34 5.63-6.46 13.55-3.12 13.55-3.12zm-19.9 9.64s6.86-5.46 3.9-13.5C23.33 9.35 19.08 5.05 21.36 0c0 0-6.8 5.54-3.97 13.5 2.16 6.1 6.6 10.38 4.31 15.44zm-.4-1.15s.66-8.85-6.94-12.21C8.43 12.95 2.19 13.18.03 8.06c0 0-.85 8.8 7.22 12.2 6 2.57 11.91 2.4 14.06 7.52zm-9.04 14.88H27.7l3.6-7.25H12.27zM14.72 64h1.33l8.86-20.35H14.72z" opacity=".5" />
</svg>