<svg xmlns="http://www.w3.org/2000/svg" viewBox="0 0 239.68 64">
   <path d="M33.84 64c-3.69-.02-8.37-.48-10.4-1.03a41.77 41.77 0 0 1-6.7-2.52 43.34 43.34 0 0 1-5.41-3.36c-1.33-1.01-3.79-3.7-5.46-5.96a34.03 34.03 0 0 1-4.45-8.7A35.49 35.49 0 0 1 0 32.32c0-3.42.5-7.13 1.34-9.8a38.47 38.47 0 0 1 3.56-7.76 39.58 39.58 0 0 1 5.4-6.39 35.91 35.91 0 0 1 7.49-4.96A44.8 44.8 0 0 1 26.03.56C28.26.09 32.98-.11 37 .08c5.76.27 8.13.75 12.87 2.6 3.2 1.25 5.82 2.57 5.82 2.94 0 .37-1.15 2.97-2.55 5.77-1.4 2.8-2.66 5.21-2.8 5.36-.14.15-1.9-.44-3.92-1.3a30.38 30.38 0 0 0-9.05-1.96c-3.85-.26-6.5-.03-9.42.81-2.97.87-4.96 2.06-7.48 4.5-2.67 2.59-3.69 4.24-4.63 7.49a19.25 19.25 0 0 0-.76 7.98c.25 2.1 1.06 5 1.8 6.45.74 1.46 2.6 3.77 4.12 5.15a21.76 21.76 0 0 0 6.48 3.74c2.72.9 5.15 1.14 9.09.9 3.89-.23 6.8-.92 10.52-2.5l5.15-2.17.57 1.53c.3.85 1.24 3.37 2.07 5.62a36.78 36.78 0 0 1 1.51 4.65c0 .32-2.14 1.56-4.75 2.76a51.93 51.93 0 0 1-7.93 2.9c-1.75.4-6.19.72-9.87.7zm59.92-.2c-5.77.18-9.21-.05-11.91-.81a44.16 44.16 0 0 1-7.4-3 39.28 39.28 0 0 1-7.33-5.6 31.17 31.17 0 0 1-5.89-8.29 42.12 42.12 0 0 1-2.9-9.46c-.55-3.53-.54-6.2.04-9.66a40.21 40.21 0 0 1 3-9.3 36.91 36.91 0 0 1 5.86-8.13 36.55 36.55 0 0 1 8.21-5.88A43.74 43.74 0 0 1 84.43.58c2.6-.5 7.23-.7 11.28-.5 4.82.25 8.54.92 12.53 2.26a69.65 69.65 0 0 1 6.5 2.4c.56.36-.09 2.26-2.16 6.3-2.21 4.33-3.23 5.68-4.02 5.33a80.5 80.5 0 0 0-6-1.8A31.01 31.01 0 0 0 92 13.48c-4.33.22-6.48.71-9.3 2.15-2 1.03-4.5 3-5.54 4.35a22.93 22.93 0 0 0-2.83 5.12c-.52 1.46-.96 4.8-.98 7.43-.01 2.79.43 5.87 1.06 7.4a20.8 20.8 0 0 0 3.68 5.27 20.19 20.19 0 0 0 6.33 4.05c2.48.93 5.38 1.4 8.5 1.36 2.6-.03 5.83-.46 7.2-.95l2.46-.89.35-8.64.35-8.64 6.17.04 6.87.06c.45.02.7 4.75.7 12.7v12.65l-3.19 1.88a46.61 46.61 0 0 1-7.58 3.3c-3.03.98-6.87 1.5-12.48 1.67zm53.59-.44h-7.77V13.3h-19.74V.62h55.04l-.2 6.17-.2 6.17-9.88.19-9.87.2.2 25 .19 25zm40.15 0h-7.04V.62h12.43l16.17 19.15 16.17 19.14.18-19.14.2-19.15h14.07v62.74h-11.91l-5.9-6.87a2395.34 2395.34 0 0 1-16.42-19.52l-10.54-12.65-.18 19.52-.2 19.52z" />
</svg>