<svg xmlns="http://www.w3.org/2000/svg" viewBox="0 0 267.63 64">
   <path d="M18.29 64H0V0l17.96.16L35.9.32 36.1 5c.1 2.57.1 4.73 0 4.8-.1.06-5.74.26-12.55.45l-12.37.33-.16 7.24c-.08 3.99.11 7.65.43 8.15.47.72 2.54.97 10.12 1.21l9.53.3v9.06l-9.32.16c-5.74.1-9.62.43-10.13.85-.62.51-.77 2.47-.64 8.28l.17 7.6 12.85.3c10.53.26 12.95.47 13.42 1.22.31.5.57 2.4.58 4.25 0 1.84-.32 3.68-.72 4.08-.53.53-5.6.72-19.01.72zm48.63-.14c-15.92.14-17.93.05-18.26-.8-.2-.54-.37-14.32-.36-30.65 0-16.32.17-30.3.37-31.06.36-1.31.61-1.37 5.28-1.2l4.9.17.32 26.56c.17 14.6.38 26.62.45 26.7.08.07 5.77.2 12.66.3l12.53.16v9.66zm71.83.14c-3.28 0-4.88-.24-5.07-.75-.16-.42-.35-12.44-.43-26.71l-.16-25.96-8.45-.15c-4.64-.08-9.07-.29-9.83-.47-1.31-.3-1.37-.55-1.2-4.98l.17-4.66 24.45-.16c22.44-.15 24.5-.07 25.2.87.41.57.75 2.6.75 4.51 0 2.83-.22 3.6-1.17 4.11-.65.35-5.05.63-9.96.63h-8.79v25.9c0 14.25-.16 26.34-.37 26.87-.29.75-1.34.95-5.14.95zm27.8 0c-4.5 0-4.78-.08-4.78-1.3 0-.72 4.48-14.74 9.95-31.17C177.2 15.1 181.98 1.29 182.36.84c.47-.57 2.2-.82 5.66-.82 3.27 0 5.19.26 5.58.75.33.42 2.96 8.1 5.86 17.05 2.9 8.97 5.92 18.07 6.71 20.22.8 2.16 2.95 8.53 4.8 14.16 1.84 5.63 3.2 10.6 3.04 11.04-.24.6-1.56.77-5.3.63l-5-.17-2.43-7.38c-1.33-4.06-2.71-7.67-3.06-8.02-.4-.4-4.32-.57-10.82-.46l-10.18.16-1.96 6.04c-1.07 3.32-1.97 6.5-1.99 7.05a3.53 3.53 0 0 1-.98 1.96c-.7.7-2.2.95-5.74.95zm21.07-25.96c4 0 7.4-.21 7.57-.47.16-.26-.65-3.32-1.81-6.8a224.86 224.86 0 0 1-3.52-11.74c-.78-2.99-1.65-5.39-1.93-5.33-.28.05-1.1 2.1-1.82 4.53s-2.18 7.14-3.25 10.46a101.94 101.94 0 0 0-2.23 7.7l-.29 1.65zm40.82 25.83c-2.67.1-5.05-.02-5.29-.25-.23-.23-.42-14.31-.42-31.29 0-23.2.18-31.04.72-31.59.52-.51 4.22-.72 12.83-.72 8.67 0 12.9.25 14.9.86 1.55.47 3.59 1.26 4.54 1.76.94.5 2.57 1.8 3.61 2.91a20.5 20.5 0 0 1 2.84 3.9c.53 1.04 1.24 3.7 1.6 5.93a21.2 21.2 0 0 1-.02 7.74 27.44 27.44 0 0 1-1.91 6.14c-.68 1.35-2.6 3.7-4.26 5.24l-3.02 2.8 4.08 7.76c2.25 4.28 5.3 10.04 6.78 12.81 1.68 3.15 2.48 5.26 2.13 5.61-.31.31-2.99.5-5.94.4l-5.38-.18L250.8 53c-2.99-5.88-5.9-11.25-6.49-11.92-.85-.99-1.77-1.22-4.82-1.21-2.08 0-4.19.26-4.69.58-.73.46-.96 2.72-1.2 11.9l-.3 11.35zm12.73-33.77c5.16-.2 6.55-.45 7.94-1.49.93-.69 2.23-2.17 2.88-3.3.81-1.37 1.2-3.13 1.2-5.37-.01-2.21-.4-3.99-1.2-5.31a10.77 10.77 0 0 0-3.18-3.17c-1.64-.97-3.14-1.18-8.24-1.18-5.14 0-6.3.17-6.6.95-.21.53-.38 4.49-.38 8.8 0 4.52.28 8.36.67 9.07.6 1.14 1.1 1.21 6.91 1z" />
   <path d="M99.74 63.87c-3.83.14-5.07-.02-5.32-.66-.17-.46-.24-2.71-.14-5l.18-4.17 4.97-.17c4.76-.17 4.97-.12 5.31 1.23.2.77.27 3.02.17 5l-.18 3.6-5 .17zm-.52-14.36h-5.07l.16-24.6.15-24.59L98.9.14c2.74-.1 4.75.1 5.28.53.7.58.85 4.68.85 23.82 0 12.71-.17 23.54-.37 24.07-.3.76-1.37.95-5.44.95z" opacity=".5" />
</svg>