<svg xmlns="http://www.w3.org/2000/svg" viewBox="0 0 262.26 64">
   <path d="M32 0A32 32 0 0 0 0 32a32 32 0 0 0 32 32 32 32 0 0 0 32-32A32 32 0 0 0 32 0zM21.83 11.2c1.23 0 2.98.11 3.73.24 5.42.96 8.79 4.22 9.77 9.43.51 2.73.33 6.45-.45 9.2a10.9 10.9 0 0 1-4.16 6.1c-2.14 1.46-4.35 2.05-7.74 2.05a18.3 18.3 0 0 1-7.8-1.57l-.78-.33v-6.38h2.47v.46A6.3 6.3 0 0 0 18.1 34c1.54 1.85 5.51 2.18 7.87.64 1.64-1.06 2.88-2.95 3.54-5.4.25-.94.55-2.6.55-3.13v-.38h-3.3c-2.93 0-3.34.03-3.67.2-.5.26-.73.71-.88 1.72l-.12.85h-1.9v-7.95h1.9l.12.84c.15 1 .34 1.42.8 1.7.32.2.56.22 3.76.22h3.43l-.06-1.13c-.27-4.35-1.84-7.04-4.7-8.04a11.6 11.6 0 0 0-4.54-.17 4.73 4.73 0 0 0-3.86 4.3l-.13.95h-2.3v-6.61l1.15-.38a20.98 20.98 0 0 1 6.06-1.03zm16.4 17.74h10.41l-.03.67-.03.67-.91.42c-1.93.88-3.64 2.17-6.36 4.81a69.7 69.7 0 0 0-1.97 1.94c-.09.13.46 1.12 2.71 4.8 3.92 6.4 4.07 6.65 4.87 7.46a6.28 6.28 0 0 0 1.68 1.25l1 .52v1.32h-7.27l-3.95-6.27-4.1-6.5c-.14-.23-.02-.38 2.14-2.76l2.9-3.23c.75-.83 1.22-1.73 1.12-2.15-.12-.5-.58-.92-1.41-1.3l-.8-.38v-1.27z" />
   <path d="M249.59 15.35v.95s.77.16 1.54.48a1.4 1.4 0 0 1 .62 2.01c-.46.69-1.9 2.56-3.67 4.5-2.94 3.23-3.28 3.8-3.28 3.8 3.18 4.8 6.24 9.69 9.27 14.6l8.19.01v-1.6s-.34-.15-1.32-.73a9.94 9.94 0 0 1-1.83-1.38c-.28-.33-2.33-3.52-4.54-7.1l-4.03-6.5 2.38-2.3a46.74 46.74 0 0 1 4.65-3.89c1.2-.83 2.5-1.47 3.76-2.21V14.4h-11.74zm-168.77-.3c-.77.15-1.92.43-2.55.62L77.1 16v6.64h2.16l.35-1.45c.2-.8.75-1.85 1.25-2.37a5.78 5.78 0 0 1 2.2-1.28c.72-.2 2.07-.3 3.02-.2.95.08 2.3.45 2.99.81.7.37 1.56 1.09 1.91 1.6.36.52.84 1.49 1.07 2.15.22.67.51 2.04.63 3.04l.22 1.82h-3.5c-1.92 0-3.68-.13-3.91-.28-.23-.15-.51-.75-.63-1.34-.18-.92-.35-1.23-.35-1.23l-1.85-.04v8.33h1.85s.17-.36.35-1.28c.12-.58.4-1.19.63-1.34.23-.15 1.93-.27 3.78-.27l3.36-.01-.18 1.8c-.1 1.1-.57 2.61-1.2 3.89a8.57 8.57 0 0 1-2.33 3.1c-.8.6-1.87 1.09-2.7 1.22a11.26 11.26 0 0 1-2.85-.01 4.03 4.03 0 0 1-2.6-1.4 4.2 4.2 0 0 1-1.36-2.66c-.22-1.49-.15-1.5-.15-1.5H76.8v6.38l1.14.49c.62.26 2.26.7 3.63.97 1.64.32 3.38.43 5.12.32 1.54-.1 3.35-.46 4.4-.86a11.7 11.7 0 0 0 3.43-2.23 10.56 10.56 0 0 0 2.45-3.4c.48-1.08.96-3.04 1.19-4.77a16.47 16.47 0 0 0-1.13-9.29 15.4 15.4 0 0 0-1.84-2.79 11.85 11.85 0 0 0-2.6-2.06 16 16 0 0 0-3.65-1.33 23.61 23.61 0 0 0-8.12-.13zm36.01 7.56c-.68.32-1.88 1.3-2.66 2.2a44.4 44.4 0 0 0-2.9 3.85c-1.41 2.11-1.56 2.24-2.67 2.24h-1.19v-2.84c0-2.15.12-2.95.5-3.33.26-.27 1.98-.5 1.98-.5v-1.9H100v1.9s1.66.24 1.9.53c.32.4.42 2.02.42 7.25s-.1 6.84-.43 7.25a1.7 1.7 0 0 1-1.16.52H100v1.9h9.89v-1.9h-.75c-.42 0-.97-.22-1.24-.5-.37-.38-.48-1.2-.48-3.49V32.8h1.32a4 4 0 0 1 2 .5c.39.27 1.37 1.94 2.19 3.72.82 1.78 1.8 3.52 2.18 3.86.56.5 1.26.65 3.76.75l3.07.13v-1.98s-.16.04-1-.2c-.77-.22-1.24-.7-1.94-1.96a449.92 449.92 0 0 0-2.05-3.64c-.83-1.46-1.45-2.14-2.4-2.63l-1.28-.66 1.1-2.24c.8-1.67 1.32-2.34 2.01-2.63a5.76 5.76 0 0 1 2.76-.18l1.83.2.33-1.2c.18-.66.33-1.38.33-1.6 0-.23-.36-.55-.8-.72a5.8 5.8 0 0 0-1.77-.3c-.54 0-1.54.27-2.23.59zm11.78-.18c-.68.23-1.84.83-2.58 1.33a9.9 9.9 0 0 0-2.21 2.22 11.67 11.67 0 0 0-1.79 7.27c.1 1.34.43 2.92.85 3.91a9.46 9.46 0 0 0 1.88 2.76 8.9 8.9 0 0 0 2.8 1.59c.9.27 2.27.49 3.05.49a13 13 0 0 0 3.12-.51c.92-.28 2.2-.79 2.84-1.12 1.02-.54 1.15-.75 1.15-.75s-.41-1.6-.43-1.63a31.7 31.7 0 0 0-2.35.45c-1.41.3-2.77.4-3.48.27a5.59 5.59 0 0 1-2.22-1.18 6.16 6.16 0 0 1-1.58-2.56 11 11 0 0 1-.38-4.21c.09-1.76.33-3.01.75-3.85a4.42 4.42 0 0 1 1.68-1.8c.58-.3 1.56-.56 2.18-.56.65 0 1.44.27 1.91.65.5.4.9 1.13 1.06 1.98.24 1.26.23 1.34.23 1.34h2.17l.09-2.74.09-2.74-1.02-.38c-.56-.2-2.27-.43-3.8-.51-1.82-.09-3.2 0-4.01.28zm39.07-.25c-.09.1-6.36.17-13.95.16l-13.8-.02v1.92h.75c.4 0 .92.23 1.15.52.32.39.45 1.98.52 6.26.06 3.16-.02 6.32-.16 7.02-.22 1.05-.43 1.31-1.26 1.57-.8.24-1 .17-1 .17v1.9h9.9v-1.9h-.75c-.42 0-.97-.22-1.24-.5-.41-.42-.48-1.52-.48-7.07 0-4.7.1-6.69.36-6.96.24-.25 1.49-.38 3.53-.38 1.74 0 3.38.09 3.65.2.42.16.49 1.09.49 7.12 0 6.53-.04 6.95-.6 7.26a3.06 3.06 0 0 1-1.24.33h-.63v1.9h10.23l-.04-1.74s-.34-.02-.98-.1a2.14 2.14 0 0 1-1.24-.6c-.3-.39-.4-2.14-.4-7.3 0-6.12.05-6.85.54-7.21.37-.28.94-.33 1.8-.17a4 4 0 0 1 1.62.6c.26.27.36 3.49.36 11.73 0 8.95-.09 11.46-.4 11.86-.23.28-.79.55-1.24.6-.65.08-.98.1-.98.1l-.05 1.75h10.55v-1.9h-.9c-.5 0-1.13-.23-1.4-.5-.37-.39-.48-1.2-.48-3.6v-3.11l2.73-.16c2.06-.12 3.18-.37 4.59-1.02a12.2 12.2 0 0 0 3.13-2.19c.7-.72 1.57-2.03 1.95-2.9.43-1.02.73-2.47.82-4.02.08-1.36-.03-3.14-.24-4.04a9.75 9.75 0 0 0-1.24-2.84 7.57 7.57 0 0 0-2.5-2.07 7.3 7.3 0 0 0-2.92-.84c-.7 0-1.93.2-2.73.45s-1.93.82-2.5 1.27a6 6 0 0 1-1.23.82c-.1 0-.17-.57-.17-1.27 0-1.18-.06-1.27-.88-1.27-.48 0-.94.08-1.04.17zm22.37.44a8.51 8.51 0 0 0-3 1.94c-.74.75-1.66 2.08-2.05 2.97-.58 1.32-.71 2.18-.72 4.63 0 2.2.16 3.41.56 4.45.31.78 1.15 2.04 1.86 2.78a6.76 6.76 0 0 0 3.25 1.99c1.08.34 2.75.62 3.71.62s2.44-.2 3.29-.43c.85-.23 2.11-.72 2.8-1.09 1.12-.58 1.25-.77 1.14-1.58l-.13-.93-1.75.43c-.97.23-2.45.42-3.3.42a7.9 7.9 0 0 1-2.79-.59 7 7 0 0 1-2.07-1.59 7.05 7.05 0 0 1-1.47-4.08v-.71h11.42l.2-.8c.1-.44.1-1.47-.03-2.29a14.82 14.82 0 0 0-.69-2.7 7.21 7.21 0 0 0-1.68-2.28 7.6 7.6 0 0 0-2.58-1.42 13.31 13.31 0 0 0-2.84-.34c-.82.01-2.22.28-3.13.6zm19-.19c-.68.23-1.84.83-2.58 1.33-.73.5-1.73 1.5-2.2 2.22a11.67 11.67 0 0 0-1.79 7.27c.08 1.34.42 2.92.84 3.91a9.53 9.53 0 0 0 1.88 2.76 8.9 8.9 0 0 0 2.8 1.59c.9.27 2.27.49 3.06.49a13 13 0 0 0 3.1-.51c.93-.28 2.2-.79 2.85-1.12 1.03-.54 1.15-.9 1.15-.9s-.4-1.45-.43-1.48a31.4 31.4 0 0 0-2.35.45c-1.41.3-2.77.4-3.48.27a5.6 5.6 0 0 1-2.22-1.18 6.18 6.18 0 0 1-1.58-2.56 11 11 0 0 1-.38-4.21c.09-1.76.33-3.01.75-3.85a4.42 4.42 0 0 1 1.68-1.8c.58-.3 1.56-.56 2.18-.56.65 0 1.44.27 1.91.65.5.4.9 1.13 1.06 1.98.24 1.26.24 1.34.24 1.34h2.16l.09-2.74.09-2.74-1.02-.38c-.56-.2-2.27-.43-3.8-.51-1.82-.09-3.2 0-4.01.28zm16.06 0c-.67.23-1.83.83-2.57 1.33a9.7 9.7 0 0 0-2.21 2.22 11.67 11.67 0 0 0-1.78 7.27c.08 1.34.42 2.92.84 3.91a9.5 9.5 0 0 0 1.88 2.76c.66.61 1.9 1.3 2.8 1.59.9.27 2.26.49 3.05.49s2.19-.23 3.11-.51c.93-.28 2.2-.79 2.84-1.12 1.03-.54 1.16-.9 1.16-.9s-.41-1.45-.43-1.48c-.02-.02-1.08.18-2.35.45-1.42.3-2.77.4-3.48.27a5.6 5.6 0 0 1-2.22-1.18 6.18 6.18 0 0 1-1.58-2.56 10.97 10.97 0 0 1-.39-4.21c.1-1.76.34-3.01.76-3.85a4.41 4.41 0 0 1 1.68-1.8c.58-.3 1.56-.56 2.17-.56.66 0 1.45.27 1.92.65.5.4.9 1.13 1.05 1.98.25 1.26.24 1.34.24 1.34h2.16l.1-2.74.08-2.74-1.01-.38c-.56-.2-2.27-.43-3.8-.51-1.82-.09-3.2 0-4.02.28zm-30.14 3c.73.68 1 1.23 1.12 2.33l.16 1.45-1.94.21c-1.06.11-2.6.2-3.43.2h-1.5v-.98c0-.54.23-1.47.5-2.07.28-.6.87-1.3 1.32-1.54a4.52 4.52 0 0 1 1.8-.47c.67 0 1.32.28 1.97.87zm-19.18.55c.5.27 1.14.95 1.43 1.51.36.7.58 2.03.66 4.1.12 2.76.06 3.23-.65 4.81-.62 1.4-1.05 1.9-2.1 2.44a4.29 4.29 0 0 1-2.96.52c-.9-.1-1.77-.26-1.94-.37-.2-.12-.32-2.38-.32-6v-5.8l1.47-.83c.8-.46 1.92-.84 2.48-.85a4.8 4.8 0 0 1 1.93.47z" />
</svg>