<svg xmlns="http://www.w3.org/2000/svg" viewBox="0 0 202.24 64">
   <path d="M31.31 1.05C14.01 1.05 0 15.25 0 32.77c0 15.53 11.02 28.46 25.58 31.2v-23.7c-.96.5-2.15.96-3.59 1.34a25.1 25.1 0 0 1-3.91.77l-.16-1.18c3.22-.62 6.3-1.7 9.27-3.2a23.2 23.2 0 0 0 7.45-5.9l2.24.16V64c14.64-2.66 25.75-15.64 25.75-31.23 0-17.52-14.02-31.72-31.32-31.72zm4.6 21.13a6.28 6.28 0 0 1-4.71 1.99 6.28 6.28 0 0 1-4.72-2 6.67 6.67 0 0 1-1.92-4.81c0-1.89.64-3.46 1.92-4.72a6.43 6.43 0 0 1 4.72-1.9c1.86 0 3.42.63 4.7 1.9a6.36 6.36 0 0 1 1.93 4.72c0 1.88-.64 3.48-1.92 4.82zM82.2 23.88v4.48H70.35v-4.48h2.93v-10.4h-2.93V8.93h9v14.95zM79.73 3.41c0 .99-.32 1.8-.99 2.46-.66.64-1.45.97-2.36.97a3.2 3.2 0 0 1-2.38-1 3.31 3.31 0 0 1-.99-2.41c0-.93.33-1.72 1-2.4.66-.67 1.45-1 2.37-1 .91 0 1.7.33 2.36 1 .65.65 1 1.45 1 2.38zM104.9 15.97v7.91h2.88v4.48h-9V16.48c0-.92-.14-1.58-.42-2-.28-.41-.74-.6-1.38-.6-1.16 0-2.34.41-3.51 1.26v8.74h2.98v4.48H84.47v-4.48h2.93v-10.4h-2.93V8.93h9v1.83a9.2 9.2 0 0 1 5.61-2.1c1.9 0 3.35.62 4.34 1.84 1 1.23 1.48 3.06 1.48 5.47zM126.35 2.74l-4.42 3.51a5.1 5.1 0 0 0-.74-1.58c-.28-.36-.6-.54-.97-.54-.55 0-.95.22-1.21.69-.27.45-.4 1.17-.4 2.12v2h3.4v4.54h-3.4v10.4h3.57v4.48H109.7v-4.48h2.8v-10.4h-2.56V8.93h2.57v-2c0-2.13.63-3.8 1.89-5.06C115.65.61 117.49 0 119.9 0c3.04 0 5.18.91 6.45 2.74z" opacity=".59" />
   <path d="M143.57 18.63c0 1.93-.44 3.68-1.34 5.24a9.62 9.62 0 0 1-3.65 3.63 10.1 10.1 0 0 1-5.05 1.32c-1.95 0-3.68-.43-5.22-1.32a9.28 9.28 0 0 1-3.59-3.63 10.65 10.65 0 0 1-1.28-5.24c0-1.92.44-3.65 1.33-5.2a9.7 9.7 0 0 1 3.63-3.63 10.14 10.14 0 0 1 5.13-1.32c1.9 0 3.63.44 5.17 1.32a9.37 9.37 0 0 1 3.59 3.64 10.52 10.52 0 0 1 1.28 5.19zm-10.09 5.36c1.2 0 2.13-.47 2.8-1.41.69-.94 1.03-2.29 1.03-4.05 0-1.65-.34-2.95-1.02-3.88a3.32 3.32 0 0 0-2.84-1.4c-1.22 0-2.15.47-2.79 1.38-.63.92-.94 2.3-.94 4.15a6.3 6.3 0 0 0 1.03 3.79c.68.94 1.6 1.42 2.73 1.42zM162 8.7v5.83c-1.68.1-3 .37-4 .8a4.62 4.62 0 0 0-2.3 2.2c-.55 1.03-.81 2.5-.81 4.42v1.92h3.8v4.47h-13.44v-4.47h3.52v-10.4h-3.34V8.93h8.94v4.94a7.41 7.41 0 0 1 2.5-3.71 6.92 6.92 0 0 1 4.51-1.48c.29-.02.5 0 .62.03zM184.86 11.31a13.22 13.22 0 0 1 7.74-2.65c1.56 0 2.82.24 3.75.74.93.5 1.62 1.28 2.06 2.4.45 1.11.65 2.61.65 4.48v7.6h3.18v4.48h-9.3V16.88c0-1.93-.86-2.9-2.59-2.9-1.24 0-2.7.42-4.4 1.27v8.63h3.13v4.48h-9.26V17.09c0-2.07-.83-3.1-2.5-3.1-1.18 0-2.66.42-4.42 1.27v8.64h3.14v4.47h-12.41V23.9h3.13V13.5h-3.13V8.93h9.26v1.63a11.62 11.62 0 0 1 6.2-1.88c2.49-.02 4.4.87 5.77 2.63z" opacity=".59" />
   <path d="M84.62 40.52c1.64 0 3.1.47 4.37 1.38a8.94 8.94 0 0 1 2.94 3.68c.7 1.54 1.04 3.2 1.04 5.01 0 1.81-.34 3.49-1.02 5.05a8.71 8.71 0 0 1-2.87 3.68 7.01 7.01 0 0 1-4.28 1.36c-2.03 0-3.89-.84-5.6-2.53v2.23h-9.4v-4.46h3.31V37.01H69.8v-4.46h9.41V43.2c1.55-1.78 3.35-2.68 5.42-2.68zM82.94 55.9c1.16 0 2.08-.5 2.74-1.47.67-.97 1-2.29 1-3.9 0-1.62-.33-2.85-1-3.68a3.28 3.28 0 0 0-2.7-1.28c-1.2 0-2.13.48-2.8 1.44a6.48 6.48 0 0 0-1.02 3.83c0 1.5.34 2.71 1.03 3.65.7.93 1.61 1.41 2.75 1.41zM104.9 55.59c1.05 0 2.17-.46 3.4-1.4v-8.67h-2.94v-4.55h9.02v14.95h3.14v4.47h-9.24v-1.63a9.95 9.95 0 0 1-5.56 1.92c-1.87 0-3.31-.53-4.35-1.57-1.03-1.05-1.55-2.49-1.55-4.33V45.5h-2.88v-4.54h8.94V53.2c0 .9.15 1.54.43 1.87.3.36.82.52 1.6.52zM135.88 40.75v5.82c-1.69.1-3.02.37-4 .8a4.62 4.62 0 0 0-2.31 2.19c-.55 1.03-.81 2.51-.81 4.43v1.93h3.8v4.47h-13.43v-4.47h3.51v-10.4h-3.34v-4.55h8.94v4.94a7.41 7.41 0 0 1 2.5-3.71 6.92 6.92 0 0 1 5.14-1.45zM156.95 50.67c0 1.93-.44 3.68-1.34 5.23a9.63 9.63 0 0 1-3.65 3.64 10.1 10.1 0 0 1-5.05 1.32c-1.95 0-3.68-.44-5.22-1.32a9.27 9.27 0 0 1-3.58-3.64 10.65 10.65 0 0 1-1.29-5.23c0-1.92.44-3.65 1.33-5.2a9.68 9.68 0 0 1 3.63-3.63 10.14 10.14 0 0 1 5.13-1.32c1.9 0 3.63.44 5.17 1.32a9.38 9.38 0 0 1 3.59 3.63 10.69 10.69 0 0 1 1.28 5.2zm-10.09 5.37c1.2 0 2.13-.46 2.81-1.4.68-.95 1.02-2.3 1.02-4.06 0-1.65-.34-2.95-1.02-3.88a3.32 3.32 0 0 0-2.83-1.39c-1.23 0-2.16.46-2.8 1.38-.63.91-.94 2.3-.94 4.14a6.3 6.3 0 0 0 1.03 3.79 3.18 3.18 0 0 0 2.73 1.42z" />
</svg>