<svg xmlns="http://www.w3.org/2000/svg" viewBox="0 0 299.79 64">
   <path d="M192.96 64h-.23l.65-3.29.6-3.21h.64a53.59 53.59 0 0 1 2.46-.11l-.19-.99a43.46 43.46 0 0 1-.57-4c0-.46 0-.76.08-1.14a71.12 71.12 0 0 1 .68-4.15 23.05 23.05 0 0 1 1.28-3.55 16.25 16.25 0 0 1 1.52-2.42 16.7 16.7 0 0 1 6.76-4.92 38.06 38.06 0 0 1 7.94-2.41 23.43 23.43 0 0 1 2.34-.23 135.3 135.3 0 0 1 5.29-.2 56.12 56.12 0 0 1 8.05.61 32.12 32.12 0 0 1 2.08.5l1.02.37.45.23-.15.3a12.32 12.32 0 0 0-.87 2.04l-.15.42-.45-.08a86.35 86.35 0 0 0-1.51-.19l-.46 1.74a6039.39 6039.39 0 0 1-4.42 18.07c0 .07 0 .07 1.02.11a18.33 18.33 0 0 1 1.66.11l-.49 2.12a7964.3 7964.3 0 0 0-.87 3.7l-2.72-.03-2.72-.04-.07-.12c-.08-.1-.08-.18-.12-.41a7.6 7.6 0 0 0-.15-1.25 1.2 1.2 0 0 0-.26-.38 1.2 1.2 0 0 0-.46-.34l-.6-.15-6.2-.04a695.35 695.35 0 0 0-11.07.12c-.3 0-.68.07-.83.15a3.33 3.33 0 0 0-.46.15.83.83 0 0 0-.22.19.38.38 0 0 1-.23.15 1.13 1.13 0 0 0-.3.15 1.51 1.51 0 0 0-.34.27 13.15 13.15 0 0 0-.95 1.43 1.97 1.97 0 0 1-.87.6h-1.62A632.84 632.84 0 0 0 193 64zm18.14-6.65h2.04l.08-.38.41-1.85a127773.51 127773.51 0 0 1 4.23-18.22l-.3.08a16.63 16.63 0 0 0-1.66.64 10.47 10.47 0 0 0-4.46 4.31 20.67 20.67 0 0 0-3.02 11.72 17.65 17.65 0 0 0 .37 3.13c0 .15.08.38.12.42l.11.15zM55.2 62l-7.25.03-.04-.1v-.65a10.13 10.13 0 0 1 .45-2.46c.08-.19.15-.26.2-.26l.3-.04a9.83 9.83 0 0 0 1.54-.23 3.21 3.21 0 0 0 .53-.15 2.04 2.04 0 0 0 .38-.3c.19-.15.23-.19.38-.72a45.61 45.61 0 0 0 1.4-5.6 135.03 135.03 0 0 0 1.36-7.55 42.63 42.63 0 0 0 .07-1.51.94.94 0 0 0-.22-.27 1.25 1.25 0 0 0-.38-.15 2.27 2.27 0 0 0-1.02-.03 5.3 5.3 0 0 0-1.33.45 1.7 1.7 0 0 1-.26.15l.08-.38a50.9 50.9 0 0 1 .64-2.83l.07-.6.23-.16a114.17 114.17 0 0 0 3.9-2.5 38.89 38.89 0 0 1 3.43-1.73 18.48 18.48 0 0 1 3.14-.87 13 13 0 0 1 3.21.08c.15 0 .38.11.5.19l.52.37a3.02 3.02 0 0 1 .68 1.36l.15.72a4.57 4.57 0 0 1-.04 1.02l1.14-.56a126.07 126.07 0 0 1 3.59-1.74 30.99 30.99 0 0 1 3.13-1.14 23.96 23.96 0 0 1 1.9-.34 24.38 24.38 0 0 1 3.96 0 6.65 6.65 0 0 1 1.51.46 6.31 6.31 0 0 1 1.14.79 5.82 5.82 0 0 1 .87.98l.3.53.26.64c.08.2.16.5.16.68V38c-.08.08-.08.26-.08.45v.83a35.52 35.52 0 0 1-.76 4.73 189.03 189.03 0 0 1-2.53 12.05 193.68 193.68 0 0 1-.07 1.36l.07.38a1.36 1.36 0 0 0 .76.64c.15 0 .45.12.72.12l.41.04v.15a26.6 26.6 0 0 0-.23 1.36l-.22.9a3.17 3.17 0 0 1-.27.57.68.68 0 0 1-.22.23l-.5.11a779.47 779.47 0 0 1-9.67 0 28.6 28.6 0 0 1-2.27-.23 7.3 7.3 0 0 1-.79-.18l-.34-.12-.04-.22a13.45 13.45 0 0 1 .34-3.7 828.79 828.79 0 0 1 2.95-15.16v-.72l-.19-.53a1.89 1.89 0 0 0-.38-.45 3.51 3.51 0 0 0-1.24-.68 1.55 1.55 0 0 0-.6 0c-.24 0-.54.11-.69.15a5.25 5.25 0 0 0-2.08 1.36l-.68.68-.3.34-1.63 8.24a2117.23 2117.23 0 0 1-2.07 10.35 1.7 1.7 0 0 1-.42.76l-.19.07-7.37.04zm182.42-.15a46.48 46.48 0 0 1-1.17-.08 13.8 13.8 0 0 1-2.2-.45 10.8 10.8 0 0 1-2-.95 9.83 9.83 0 0 1-1.5-1.32 10.05 10.05 0 0 1-1.1-1.63 10.47 10.47 0 0 1-.76-2.49 11.19 11.19 0 0 1 .41-5.4 28.04 28.04 0 0 1 1.48-3.86 17.8 17.8 0 0 1 1.4-2.27l.56-.68.6-.68a15.15 15.15 0 0 1 3.6-3.13 29.48 29.48 0 0 1 8.95-4.16 41.3 41.3 0 0 1 4.58-.9 69.46 69.46 0 0 1 7.56-.23 45.12 45.12 0 0 1 4.8.6 45.5 45.5 0 0 1 1.8.42l-.63 1.5-.65 1.48-.56-.11a29.1 29.1 0 0 0-5.7-.5 17.38 17.38 0 0 0-7.8 2.27 19.8 19.8 0 0 0-1.66 1.14 12.96 12.96 0 0 0-2.04 2.04 37.72 37.72 0 0 0-1.55 1.96 15.12 15.12 0 0 0-1.5 3.03c-.35.75-.35.75-.42 1.43a42.48 42.48 0 0 0-.16 2.46 4.38 4.38 0 0 0 .38 1.89 3.59 3.59 0 0 0 1.02 1.13 3.93 3.93 0 0 0 3.14.27.98.98 0 0 0 .26-.2 2.04 2.04 0 0 0 .2-.37l.3-.87a54.12 54.12 0 0 0 1.54-8.12.76.76 0 0 0-.3-.27 1.4 1.4 0 0 0-.64-.11c-.26 0-.57 0-.83.07a8.62 8.62 0 0 0-1.4.34l.23-.37a14.1 14.1 0 0 1 6.76-5.14 25.47 25.47 0 0 1 2.65-.83 13.6 13.6 0 0 1 5.25 0 4.84 4.84 0 0 1 1.06.56 2.87 2.87 0 0 1 .75.87 2.76 2.76 0 0 1 .27 1.17l-.15 1.14a395.48 395.48 0 0 1-1.36 6.87 167.34 167.34 0 0 0-.8 5.14 42.7 42.7 0 0 0-.19 2.35v.38l.3.3c.16.15.38.34.57.38a2.74 2.74 0 0 0 1.55.38c.65 0 .65 0 .65.07l-.12.49a7.97 7.97 0 0 1-1.1 2.34 1.89 1.89 0 0 1-.26.38 236.83 236.83 0 0 1-6.8.15h-7.18l-1.51-.04-.27-.15c-.19-.11-.26-.15-.3-.26a13.5 13.5 0 0 1 .38-1.78v-.19c-.04-.07-.12-.03-.57 0l-.53.2-.68.45a19.69 19.69 0 0 1-2.27 1.13 19.46 19.46 0 0 1-2.26.53 44.22 44.22 0 0 1-2.08.23zm-142.4-.2h-9.6v-.37a21.96 21.96 0 0 1 .46-2.46c.04-.22.11-.38.15-.38h.34a8.84 8.84 0 0 0 2.15-.64l.53-.34a2.46 2.46 0 0 0 .42-.41 1.81 1.81 0 0 0 .22-.38 782.76 782.76 0 0 0 2.91-16.36.5.5 0 0 0-.15-.2 1.13 1.13 0 0 0-.37-.07c-.16 0-.69 0-1.21.08l-1.14.11h-.19l.23-.34a14.36 14.36 0 0 1 4.76-3.93 30.38 30.38 0 0 1 3.6-1.66 25.58 25.58 0 0 1 2.52-.72c.27-.08.6-.11 1.14-.11h1.02a4.76 4.76 0 0 1 1.58.6l.76.5c.15.14.27.37.38.6a6.24 6.24 0 0 1 .49 1.2l.38-.22a16.63 16.63 0 0 1 3.1-1.44 26.53 26.53 0 0 1 4.83-1.24 19.69 19.69 0 0 1 3.6 0 14.89 14.89 0 0 1 1.88.41 10.96 10.96 0 0 1 1.63.76 10.88 10.88 0 0 1 1.62 1.24c.34.3.46.46.57.68a6.73 6.73 0 0 1 .64 2.2 12.47 12.47 0 0 1-.07 3.2 7.7 7.7 0 0 1-.87 2.28 11.34 11.34 0 0 1-1.7 2.64 22.45 22.45 0 0 1-4.24 3.7 26.76 26.76 0 0 1-2.8 1.44l-.48.23-.5.19a23.62 23.62 0 0 1-2.26.56 111.14 111.14 0 0 1-8.2 1.51h-.23l-.07.23-.16.53a6.8 6.8 0 0 0-.07 1.44v1.13l.11.08a1.13 1.13 0 0 0 .38.22 5.25 5.25 0 0 0 1.63.27c.49 0 .68.03.68.07a6.08 6.08 0 0 1-.42 1.63l-.38 1.2v.35zM103.81 51a14.28 14.28 0 0 0 3.02-.64 9.37 9.37 0 0 0 2-1.14 9.83 9.83 0 0 0 1.22-1.13 9.3 9.3 0 0 0 1.32-2.34 11.41 11.41 0 0 0 .45-1.82 2.15 2.15 0 0 0 0-.75 6.69 6.69 0 0 0-.3-1.36l-.26-.53a3.25 3.25 0 0 0-.46-.5 2.87 2.87 0 0 0-1.13-.6 4.91 4.91 0 0 0-2.65.12 9.6 9.6 0 0 0-1.4.49l-.94 4.98a3754.03 3754.03 0 0 1-.87 5.22zm27.51 10.66a15.12 15.12 0 0 1-2.15-.23 10.54 10.54 0 0 1-2.65-.98 8.7 8.7 0 0 1-2-1.67 9.94 9.94 0 0 1-1.06-1.66 9.45 9.45 0 0 1-.45-7.18 26.45 26.45 0 0 1 1.7-4.57 18.25 18.25 0 0 1 1.2-2c.2-.23.5-.65.76-.87l.76-.87a14.36 14.36 0 0 1 2.8-2.57 29.55 29.55 0 0 1 15.5-5.56 115.26 115.26 0 0 1 4.07-.19 47.62 47.62 0 0 1 4.92.3 38.36 38.36 0 0 1 3.85.8 56.08 56.08 0 0 1-1.28 2.91s-.3 0-.68-.11a34.84 34.84 0 0 0-3.82-.46 24.38 24.38 0 0 0-3.82.23 20.3 20.3 0 0 0-5.67 2 18.63 18.63 0 0 0-2.26 1.67 18.6 18.6 0 0 0-2.39 2.57 17.08 17.08 0 0 0-1.62 2.64l-.57 1.32c-.34.76-.34.76-.41 1.44a43.2 43.2 0 0 0-.2 2.2l.08 1.05.2.72.26.56.41.53c.23.2.38.34.65.46l.56.26.6.15.76.04.64-.08c.12 0 .3-.07.38-.15a1.06 1.06 0 0 0 .27-.15 1.78 1.78 0 0 0 .19-.3l.22-.6a40.25 40.25 0 0 0 .99-3.86 108.54 108.54 0 0 0 .75-4.35c0-.1 0-.22-.07-.3a.76.76 0 0 0-.27-.22 1.81 1.81 0 0 0-.49-.12 4.38 4.38 0 0 0-1.47.12 8.5 8.5 0 0 0-.95.26l.19-.3a11.8 11.8 0 0 1 2.76-2.84 20.18 20.18 0 0 1 4.87-2.68 15.87 15.87 0 0 1 2.27-.6c.5-.12.64-.12 2.27-.12 1.51 0 1.74 0 2.04.08a5.37 5.37 0 0 1 1.25.49c.11.07.37.23.45.38.15.07.34.3.45.49l.3.6a5.63 5.63 0 0 1-.07 2.08 2789.34 2789.34 0 0 1-1.4 7 131.89 131.89 0 0 0-.83 5.85l-.07 1.25v.53l.3.26a2.76 2.76 0 0 0 1.2.64c.27.08.46.08.95.08.53 0 .6 0 .6.07l-.1.5a8.09 8.09 0 0 1-.54 1.43 7.82 7.82 0 0 1-.75 1.14.76.76 0 0 1-.23.18 311.13 311.13 0 0 1-15.6-.03.94.94 0 0 1-.27-.2v-.3l.15-.83.19-.75c0-.2 0-.23-.11-.23l-.53.08c-.27.07-.46.11-.5.19l-.75.49a18.1 18.1 0 0 1-2.04 1.06 13.08 13.08 0 0 1-3.29.68l-1.32.07zm28.42-.15h-.68l-.26-.23a2.65 2.65 0 0 1-.38-.6c-.19-.3-.19-.3-.19-.84 0-.41 0-.53.15-.98l.15-.5h.38l.57-.1.38-.16a1.51 1.51 0 0 0 .34-.22 1.51 1.51 0 0 0 .22-.34l.23-.6c.15-.35.53-2.05 1.85-8.06 1.21-5.66 1.66-7.67 1.63-7.74a2.15 2.15 0 0 0-.23-.38 1.89 1.89 0 0 1-.23-.3l-.22-.12a1.7 1.7 0 0 0-.65-.07 3.51 3.51 0 0 0-.8.15 9.45 9.45 0 0 0-1.05.38l.11-.15a32.27 32.27 0 0 1 1.44-1.63 21.96 21.96 0 0 1 7.56-4.84 15.87 15.87 0 0 1 1.89-.49c.34-.07.6-.07 1.51-.07a8.35 8.35 0 0 1 2.08.22 5.44 5.44 0 0 1 1.1.5 3.85 3.85 0 0 1 .86.86l.27.53.07.64v.38l1.44-.6a112.47 112.47 0 0 1 4.04-1.55 28.72 28.72 0 0 1 5.07-1.13 37.03 37.03 0 0 1 4.53.18 8.54 8.54 0 0 1 1.29.46l.53.3a4.91 4.91 0 0 1 1.02.98 4.46 4.46 0 0 1 .83 2.42 7.94 7.94 0 0 1-.15 2.08l-.23 1.02a6.54 6.54 0 0 1-1.29 2.2 14.02 14.02 0 0 1-3.47 2.94l-.27.11.27.15.45.27a4.61 4.61 0 0 1 .9.98 7.94 7.94 0 0 1 1.07 2.04 9.22 9.22 0 0 1 .26 1.44v.87a10.88 10.88 0 0 1-.34 1.7 14.89 14.89 0 0 1-1.28 2.64 14.28 14.28 0 0 1-2.46 2.35 13.38 13.38 0 0 1-4.61 1.92 33.94 33.94 0 0 1-5.78.95c-.99.07-1.06.07-7.52.04a1664.3 1664.3 0 0 0-12.4 0zm15.3-3.18c.95 0 1.03 0 1.3-.11a6.16 6.16 0 0 0 1.13-.6 8.43 8.43 0 0 0 2.07-2.12 7.94 7.94 0 0 0 .76-1.51l.19-.76c.07-.23.07-.53.07-.98 0-.46 0-.68-.07-.95a2.91 2.91 0 0 0-.53-1.13 3.48 3.48 0 0 0-.38-.38 3.7 3.7 0 0 0-1.25-.6c-.37-.08-.45-.12-1.36-.12a5.74 5.74 0 0 0-1.89.23c-.15.04-.18.07-.26.26a6.92 6.92 0 0 0-.38 1.44 100.6 100.6 0 0 0-1.28 6.42c0 .12.11.3.15.42l.23.3.3.15zm1.86-12.24c.34 0 .68 0 .9-.08a4.88 4.88 0 0 0 2.58-1.36 6.5 6.5 0 0 0 1.32-1.74l.22-.64a3.02 3.02 0 0 0 .08-.72c0-.26 0-.41-.08-.6a2.42 2.42 0 0 0-.18-.46 2.5 2.5 0 0 0-.3-.37 1.7 1.7 0 0 0-.38-.23 2.53 2.53 0 0 0-.5-.15 7.94 7.94 0 0 0-2.64.15l-.6.26a2.72 2.72 0 0 0-.46.38 2.38 2.38 0 0 0-.57 1.02l-.15.8a37.3 37.3 0 0 1-.56 3.06v.45l.26.11.38.08h.68zM23.7 28.36a35.86 35.86 0 0 1-1.78-.07 13.42 13.42 0 0 1-1.55-.34 4.91 4.91 0 0 1-1.13-.53 2.12 2.12 0 0 1-.76-.8 2.27 2.27 0 0 1-.11-.37l-.2-.57a43.69 43.69 0 0 1-.9-4.76 97.16 97.16 0 0 0-.5-2.65.76.76 0 0 0-.18-.19c-.11-.03-.23-.07-.5-.07h-.37l-.75 2.95a851.12 851.12 0 0 1-1.44 4.83l-.38.68-.45.5a2.87 2.87 0 0 1-1.29.68l-.68.1A205.62 205.62 0 0 1 0 27.88l.11-.53a28.23 28.23 0 0 1 .95-2.57l.19-.45h.83c.3 0 .64-.08.8-.11l.48-.2a2 2 0 0 0 .38-.3 2.12 2.12 0 0 0 .38-.52c.15-.27.23-.57.49-1.67A14982.35 14982.35 0 0 1 7.78 7.16a.76.76 0 0 0-.15-.38 1.02 1.02 0 0 0-.22-.26 1.1 1.1 0 0 0-.38-.08h-.5l-.94.27a3.9 3.9 0 0 1-.8.23c-.07 0-.18 0-.22-.08l-.07-.3-.08-.53v-.3l.34-.34a10.66 10.66 0 0 1 1.74-1.4 25.4 25.4 0 0 1 4.65-2.3 22.41 22.41 0 0 1 3.21-.84 9.75 9.75 0 0 1 1.59 0 7.37 7.37 0 0 1 1.43.3l.38.2a3.48 3.48 0 0 1 .57.52 2.57 2.57 0 0 1 .41.8c.08.18.08.45.12.79l-.04.94-.3 1.02a3633.17 3633.17 0 0 1-1.82 8.13l.2.19h.33l.5-.12.52-.37.6-.72a39.5 39.5 0 0 0 2.43-3.67 36.7 36.7 0 0 1 3.25-4.42 18.78 18.78 0 0 1 3.81-2.8A16.85 16.85 0 0 1 36.43.03 17.08 17.08 0 0 1 39 .28a13.45 13.45 0 0 1 1.51.38l-.38 1.14-.3 1.05h-.68a6.54 6.54 0 0 0-3.63 1.25 11.53 11.53 0 0 0-3.59 3.7 28.23 28.23 0 0 0-2.15 3.9 10.77 10.77 0 0 1-1.66 2.15 11.22 11.22 0 0 1-1.52 1.17 13.8 13.8 0 0 1-3.17 1.51c-.08 0-.08 0 0 .04a27.63 27.63 0 0 1 .98.72 7 7 0 0 1 1.21 1.4 12.81 12.81 0 0 1 1.7 3.82 11.15 11.15 0 0 0 .72 1.62c.04.11.23.3.38.42l.38.3.45.15a2.38 2.38 0 0 0 1.06 0 1.51 1.51 0 0 1 .22 0 54.04 54.04 0 0 1-.37 1.81l-.27.27a5.14 5.14 0 0 1-1.2.57 13.23 13.23 0 0 1-3.45.68zm38.24-.15a27.51 27.51 0 0 1-2.08-.15A9.83 9.83 0 0 1 57.03 27 16.74 16.74 0 0 1 54 24.81a9.94 9.94 0 0 1-1.02-1.2c-.11-.2-.11-.2 0-.27a127.09 127.09 0 0 1 2.61-2.16l.19.2a121.46 121.46 0 0 1 1.13 1.58 4.65 4.65 0 0 0 1.25.98 5.48 5.48 0 0 0 1.17.42l.87.07.9-.03a4.61 4.61 0 0 0 1.44-.72l.5-.46.37-.49.27-.49a42.55 42.55 0 0 1 .34-1.89l-.08-.6a1.26 1.26 0 0 0-.19-.46 2.23 2.23 0 0 0-.87-.83 4.27 4.27 0 0 0-1.58-.38l-.5-.03v-.12l.23-1.24a25.92 25.92 0 0 0 .23-1.4l.38-.08a4.88 4.88 0 0 0 1.43-.41l.6-.38.42-.38a2.27 2.27 0 0 0 .27-.42 1.02 1.02 0 0 0 .11-.52c0-.16 0-.3-.07-.46a1.74 1.74 0 0 0-.72-.72c-.2-.07-.27-.07-.76-.07-.45 0-.64 0-.94.11a7.63 7.63 0 0 0-2.3 1.1 20.48 20.48 0 0 0-3.4 2.87l-.2.23-.94-1.1a21.01 21.01 0 0 1-.99-1.1l.57-.52a27.13 27.13 0 0 1 4.2-3.07 28.57 28.57 0 0 1 4.98-2.11 33.67 33.67 0 0 1 2.39-.6 14.44 14.44 0 0 1 2.26-.12 9.22 9.22 0 0 1 1.82.38 433.27 433.27 0 0 1 1.62.68l.68.45c.2.15.46.38.57.57a7.4 7.4 0 0 1 .68 1.44l.04.9a3.4 3.4 0 0 1-.12 1.06 8.58 8.58 0 0 1-.64 1.59 8.43 8.43 0 0 1-1.06 1.4 5.37 5.37 0 0 1-.8.68l.16.1a3.4 3.4 0 0 1 .83 1.03l.27.64.07.87c0 .34 0 .64-.07.9a20.4 20.4 0 0 1-.87 2.84 8.39 8.39 0 0 1-1.48 1.97 10.8 10.8 0 0 1-2.19 1.62 12.66 12.66 0 0 1-6.12 1.51zm34.7-.11h-.65l-.11-.15a1.17 1.17 0 0 1-.08-.5l.08-.67a21.01 21.01 0 0 1 .34-1.33c0-.15.03-.15.26-.19a3.59 3.59 0 0 0 1.2-.49 9 9 0 0 0 1.9-1.58 23.24 23.24 0 0 0 3.02-3.82c.08-.15.08-.15-.04-.53a74.98 74.98 0 0 1-1.05-3.51 10.96 10.96 0 0 0-.76-1.7 2.76 2.76 0 0 0-.3-.35 2.27 2.27 0 0 0-.5-.3 2.95 2.95 0 0 0-.56-.19h-.83a6.92 6.92 0 0 0-1.32.15l.03-.18a2.27 2.27 0 0 1 .27-.46l.53-.53a13.6 13.6 0 0 1 1.36-1.02 139.45 139.45 0 0 1 4.15-2.68 8.05 8.05 0 0 1 1.4-.5 3.78 3.78 0 0 1 .68-.03 1.81 1.81 0 0 1 1.44.72l.49.8a37.15 37.15 0 0 1 1.17 2.56l.34.46c.04.1.15.15.2.15l.86-.8a24.87 24.87 0 0 1 1.74-1.5l.45-.27a1.36 1.36 0 0 0 .38-.27 7.03 7.03 0 0 1 3.29-1.81l.64-.04a4.3 4.3 0 0 1 1.21.23l.45.19.38.3a3.33 3.33 0 0 1 .95 1.51l-1.63 1.78-1.96 2.07-.38.38-.12-.26a2.65 2.65 0 0 0-.41-.53 1.44 1.44 0 0 0-1.06-.5 3.1 3.1 0 0 0-1.28.2 4.65 4.65 0 0 0-1.4 1.13 10.88 10.88 0 0 0-1.29 1.51l-.07.2.41 1.43a124.97 124.97 0 0 0 1.29 3.85 17.27 17.27 0 0 0 1.1 2.08l.52.76a2.3 2.3 0 0 0 .76.37 5.18 5.18 0 0 0 1.51.23c.26 0 .34 0 .38.08V25a5.3 5.3 0 0 1-.12 1.51l-.26.64a2.08 2.08 0 0 1-.26.46c-.12.07-.2.11-.5.19l-1.02.07c-.41.04-2.15.08-5.55.08l-5.22.04h-.37l-.12-.2a2.27 2.27 0 0 1-.22-.45 2.08 2.08 0 0 1 0-1.13l.3-.76.19-.53h.37c.3 0 .38 0 .53-.07a1.06 1.06 0 0 0 .3-.23.68.68 0 0 0 .12-.38 3.51 3.51 0 0 0-.3-1.77l-.23.26a27.02 27.02 0 0 0-2 2.84 22.3 22.3 0 0 1-1.14 1.24l-.68.57a4.53 4.53 0 0 1-.6.34 11.15 11.15 0 0 1-2.65.38zm-6.62-.08h-5.94l-.1-.15a.94.94 0 0 1-.16-.19 2.91 2.91 0 0 1-.08-.56 2.57 2.57 0 0 0-.07-.53l-.72.3a21.8 21.8 0 0 1-1.62.68 8.77 8.77 0 0 1-3.52.19 7.14 7.14 0 0 1-1.13-.45 6.76 6.76 0 0 1-1.1-.76 5.74 5.74 0 0 1-.94-1.32 6.2 6.2 0 0 1-.6-2.12 13.15 13.15 0 0 1-.12-1.78 12.47 12.47 0 0 1 .19-2.07 12.32 12.32 0 0 1 1.32-3.33 14.1 14.1 0 0 1 2.04-2.46 15.95 15.95 0 0 1 1.9-1.5 14.47 14.47 0 0 1 3.58-2.05 37.34 37.34 0 0 1 6.31-1.96 39.3 39.3 0 0 1 4.16-.57 20.94 20.94 0 0 1 2.04 0l-.38 1.28-.49 1.25h-.57a27.2 27.2 0 0 0-2.38.3 18.14 18.14 0 0 0-4.53 1.67 19.76 19.76 0 0 0-2.69 1.96 11.83 11.83 0 0 0-1.32 1.55 9 9 0 0 0-.94 2.04 7.86 7.86 0 0 0-.2 1.51 6.42 6.42 0 0 0 .24 1.82l.22.38c.08.1.2.3.3.37l.38.27.5.11c.18 0 .37 0 .48-.07a1.7 1.7 0 0 0 .84-.76l.26-.76a87.75 87.75 0 0 0 .76-3.93c0-.19-.04-.26-.15-.37a.68.68 0 0 0-.3-.2 14.44 14.44 0 0 0-1.33 0h-.53l.11-.14a8.62 8.62 0 0 1 1.9-1.82 25.58 25.58 0 0 1 2.71-1.74 14.1 14.1 0 0 1 1.52-.6l.79-.19a6.35 6.35 0 0 1 1.7-.15 3.4 3.4 0 0 1 1.21.3l.5.34c.1.08.26.27.3.38l.22.45c.08.15.11.38.11.64 0 .38 0 .5-.87 4.92a585.2 585.2 0 0 0-.9 5.36l.07.38a1.13 1.13 0 0 0 .57.6l.5.12.33.08-.04.49a16.25 16.25 0 0 1-.22 1.62 5.25 5.25 0 0 1-.38.98l-.11.2zm92.28 0l-4.83-.03a.64.64 0 0 1-.38-.5 13.42 13.42 0 0 1-.08-.9l-.83.38a17.69 17.69 0 0 1-1.51.64 7.4 7.4 0 0 1-1.63.22l-1.1.04a4.95 4.95 0 0 1-1.43-.3 6 6 0 0 1-1.13-.68 5.74 5.74 0 0 1-1.1-1.13 6.61 6.61 0 0 1-.56-1.14 154.68 154.68 0 0 1-.38-2.19 11.72 11.72 0 0 1 .56-4.69 12.24 12.24 0 0 1 1.4-2.57 15.46 15.46 0 0 1 1.48-1.66 16.85 16.85 0 0 1 1.96-1.51 10.77 10.77 0 0 1 1.78-1.2A23.2 23.2 0 0 1 180 8.6a42.74 42.74 0 0 1 5.44-1.1 30.38 30.38 0 0 1 3.4-.07l-.42 1.24-.45 1.25h-.53a41.15 41.15 0 0 0-2.11.23 17.72 17.72 0 0 0-4.16 1.36 17.99 17.99 0 0 0-2.65 1.66 13.64 13.64 0 0 0-1.5 1.48 10.88 10.88 0 0 0-1.03 1.58 8.92 8.92 0 0 0-.49 1.21l-.11.6a6.69 6.69 0 0 0 .15 2.65l.15.38a1.93 1.93 0 0 0 .76.72c.15.07.3.07.49.11.22 0 .37 0 .53-.07a1.7 1.7 0 0 0 .83-.76l.22-.76a88.4 88.4 0 0 0 .76-3.93c0-.19 0-.26-.11-.37a.68.68 0 0 0-.34-.2 13.6 13.6 0 0 0-1.36 0h-.5l.12-.14a4.65 4.65 0 0 1 .98-1.1 17.53 17.53 0 0 1 5.3-3.1 43.2 43.2 0 0 0 1.5-.3 5.3 5.3 0 0 1 1.51.11 2.65 2.65 0 0 1 1.06.53l.3.38.2.45c.07.15.1.38.1.64 0 .38 0 .5-.86 5.07a73.31 73.31 0 0 0-.9 4.99c0 .26 0 .41.07.56a1.13 1.13 0 0 0 .6.65c.08.03.3.11.5.11l.3.08v.49a15.99 15.99 0 0 1-.23 1.62 5.25 5.25 0 0 1-.38.98l-.11.2zm87.41 0a1250.61 1250.61 0 0 1-5.97-.07.64.64 0 0 1-.15-.15c-.07-.12-.11-.23-.15-.65 0-.3-.04-.56-.08-.56l-.75.34a19.58 19.58 0 0 1-1.7.68 10.28 10.28 0 0 1-2.2.26c-.79 0-.86 0-1.24-.11a6.12 6.12 0 0 1-1.66-.83l-.65-.53a5.3 5.3 0 0 1-.87-1.29 6.54 6.54 0 0 1-.37-1.17 62.17 62.17 0 0 1-.3-2 7.97 7.97 0 0 1 .15-2.27 14.1 14.1 0 0 1 .75-2.57 10.58 10.58 0 0 1 3.21-4.08 29.4 29.4 0 0 1 5.6-3.4 35.6 35.6 0 0 1 8.91-2.16 28.34 28.34 0 0 1 2.84-.07l.15.04-.45 1.24-.46 1.25-.83.04a19.12 19.12 0 0 0-3.7.64 18.63 18.63 0 0 0-3.21 1.44 19.88 19.88 0 0 0-1.78 1.2 14.1 14.1 0 0 0-2.12 2.39 9.15 9.15 0 0 0-.75 1.5l-.15.77a6.2 6.2 0 0 0 .15 2.83 2.27 2.27 0 0 0 .15.38l.3.38a1.89 1.89 0 0 0 .42.26c.19.11.3.11.56.15.27 0 .34 0 .57-.11a1.59 1.59 0 0 0 .72-.72l.19-.6a75.2 75.2 0 0 0 .83-4.09.64.64 0 0 0-.11-.3.64.64 0 0 0-.2-.19 1.66 1.66 0 0 0-.37-.11h-1.59s0-.11.12-.23a12.66 12.66 0 0 1 3.51-2.87 19.61 19.61 0 0 1 2.65-1.2 47.13 47.13 0 0 1 1.5-.31 4.27 4.27 0 0 1 2.12.3l.53.38a2 2 0 0 1 .57 1.06l.04.53-.87 4.83-.95 5c0 .26 0 .4.08.6.04.15.11.3.26.41a1.13 1.13 0 0 0 .38.3l.53.12h.26l-.03.38a88.4 88.4 0 0 1-.2 1.62l-.18.6a3.48 3.48 0 0 1-.23.53l-.15.23h-3.63zm-223 0c-4.72 0-4.76 0-4.91-.11a.68.68 0 0 1-.15-.19 2.15 2.15 0 0 1-.12-.6 3.06 3.06 0 0 0-.07-.53c0-.04-.2 0-.8.34l-1.13.49a7.4 7.4 0 0 1-1.93.38h-1.13a3.63 3.63 0 0 1-.95-.12 6.08 6.08 0 0 1-1.5-.64 5.93 5.93 0 0 1-1.3-1.25 6.31 6.31 0 0 1-.67-1.47 9.56 9.56 0 0 1-.3-1.59 11.83 11.83 0 0 1 .52-4.95 12.1 12.1 0 0 1 1.74-3.02 13.38 13.38 0 0 1 3.18-2.87 11.53 11.53 0 0 1 2.9-1.7 32.27 32.27 0 0 1 12.59-2.84h.57a17.35 17.35 0 0 1-.87 2.46c0 .11-.04.11-.3.11a10.05 10.05 0 0 0-1.63.15 22.64 22.64 0 0 0-3.66.95 19.73 19.73 0 0 0-3.18 1.62 16.21 16.21 0 0 0-1.7 1.4 11.83 11.83 0 0 0-1.2 1.51 8.01 8.01 0 0 0-.77 1.51 7.1 7.1 0 0 0-.26 1.55 5.56 5.56 0 0 0 .38 2.35l.38.49.53.34a1.4 1.4 0 0 0 .94 0 1.89 1.89 0 0 0 .38-.2 2.04 2.04 0 0 0 .26-.37l.3-.6a51.7 51.7 0 0 0 .84-4.27c0-.16 0-.27-.08-.34a.76.76 0 0 0-.23-.16 1.4 1.4 0 0 0-.37-.1h-.76l-.72.03h-.11l.15-.27.57-.64A13.19 13.19 0 0 1 45 12.68a19.42 19.42 0 0 1 2.27-1.1 38.66 38.66 0 0 1 1.5-.37 6.65 6.65 0 0 1 1.78 0c.2 0 .46.11.6.15.2.07.39.22.54.34.15.11.34.3.38.41.1.12.22.38.26.5a2.65 2.65 0 0 1 .11.67c0 .38 0 .53-.87 5.03-.75 3.97-.9 4.69-.9 5.03 0 .38 0 .41.11.64l.27.38a1.51 1.51 0 0 0 .83.3h.26v.53a16.06 16.06 0 0 1-.23 1.66 4.84 4.84 0 0 1-.37.98l-.15.2h-4.73zm88.05-.03h-1.28c.07 0 .07-.12.11-.46l.23-1.13a28.72 28.72 0 0 0 .38-1.9l.1-.03a2.76 2.76 0 0 0 1.03-.26c.23-.08.38-.23.6-.46l.5-.56.18-.27 1.1-4.08 1.17-4.53a3.78 3.78 0 0 0 .11-1.48l-.64.04c-.38.04-.68.07-.75.04a.9.9 0 0 1-.3-.08 1.36 1.36 0 0 0-.23-.11.83.83 0 0 1-.23-.08l.68-.75a23.17 23.17 0 0 1 5.18-3.78 9.83 9.83 0 0 1 1.66-.53 2.65 2.65 0 0 1 1.13 0l.42.15.57.45a2 2 0 0 1 .68 1.14l.07.87c0 .45 0 .6.08.6l.34-.11.6-.3a94.85 94.85 0 0 0 4.05-2.35 3.4 3.4 0 0 1 .9-.34l.91-.11h.76l.56.23c.23.07.38.22.6.37l.5.6.23.5a7.56 7.56 0 0 1 .11.75l.08.6.1.08.24-.07a13.53 13.53 0 0 0 2.15-1.02 113.3 113.3 0 0 1 3.55-1.9 4.08 4.08 0 0 1 2.84.16c.26.11.37.23.64.45.26.27.38.38.53.76l.26.72a5.03 5.03 0 0 1 .08 1.62l-.2.99a105.44 105.44 0 0 0-1.73 7.93 267.48 267.48 0 0 0-.5 2.95c0 .23 0 .38.08.5 0 .07.12.22.2.26.07.07.22.18.37.22l.64.04c.38 0 .46 0 .38.08a35.33 35.33 0 0 0-.56 2.34 2.34 2.34 0 0 1-.23.38 1.59 1.59 0 0 1-.27.3 2.3 2.3 0 0 1-1.02.41l-.98.16-3.02.03a64.62 64.62 0 0 1-4.23-.15.53.53 0 0 1-.23-.11.57.57 0 0 1-.08-.27 2 2 0 0 1 .08-.6c0-.23.11-.6.15-.83a1039.29 1039.29 0 0 1 2.3-10.73 27.97 27.97 0 0 1 .46-1.67l-.3-.19c-.27-.11-.3-.15-.57-.11-.27 0-.38.04-.6.15a5.18 5.18 0 0 0-1.06.76 34.13 34.13 0 0 0-.53 2.45 825.12 825.12 0 0 1-2.53 11.19l-1.37.08a117.08 117.08 0 0 1-6.12-.08c-.15 0-.15 0-.15-.23v-.56a23.43 23.43 0 0 1 .6-2.91 643.01 643.01 0 0 1 1.9-8.58 37.45 37.45 0 0 1 .3-1.51l-.08-.3a.64.64 0 0 0-.22-.23 1.13 1.13 0 0 0-.38-.12l-.53.04c-.3.04-.3.04-.68.42l-.46.41-.18.8a194.92 194.92 0 0 1-2.57 12.24l-.2.23a1.13 1.13 0 0 1-.37.15l-.45.11-3.25.08-4.35.07zm155.96 0a265.1 265.1 0 0 1-5.29-.08l.46-2.04.49-2.04-.38.26a64.77 64.77 0 0 1-3.48 2.5 16.93 16.93 0 0 1-2.04.94l-.98.27c-.38.11-.57.11-1.51.11-.87 0-1.1 0-1.32-.08a2.57 2.57 0 0 1-.42-.15 2.2 2.2 0 0 1-.3-.19 1.25 1.25 0 0 1-.27-.37c-.15-.27-.15-.3-.15-.76a3.63 3.63 0 0 1 .23-1.32l.04-.2h.53a5.86 5.86 0 0 0 1.85-.37 10.05 10.05 0 0 0 1.89-.94 5.86 5.86 0 0 0 1.28-1.21l.08-.12h-.34a5.3 5.3 0 0 1-1.4-.26 5.7 5.7 0 0 1-1.51-.83 7.03 7.03 0 0 1-.87-.83 7.03 7.03 0 0 1-.76-1.21 4.27 4.27 0 0 1-.26-.8 8.5 8.5 0 0 1-.15-.9 4.16 4.16 0 0 1 .38-2.23 43.08 43.08 0 0 1 .64-1.33 10.13 10.13 0 0 1 1.28-1.62 12.28 12.28 0 0 1 4-2.72 26.6 26.6 0 0 1 3.41-1.21 13 13 0 0 1 1.96-.38 12.92 12.92 0 0 1 1.97-.3 45.69 45.69 0 0 1 3.85-.12h1.67l1.36.16a148.33 148.33 0 0 1 2.87.37c.23.04.26.08.26.16l-.03.49-.3 1.32-.27.94h-.3l-.53.08a2.27 2.27 0 0 0-.46.23 2.15 2.15 0 0 0-.68.75 117.34 117.34 0 0 0-.98 3.86 1230.2 1230.2 0 0 0-1.59 7.55v.46l.16.49.26.38.38.22.68.12h.45v.15a7.4 7.4 0 0 1-.19 1.32c-.07.23-.15.53-.26.68a3.78 3.78 0 0 1-.3.5l-.2.22h-1.32zm-4.27-9.34c.27 0 .53-.04.76-.11l.38-.08.15-.3.26-.8.3-1.2a142.74 142.74 0 0 0 .99-4.84l-.57.15a14.17 14.17 0 0 0-1.81.83l-.72.46a7.3 7.3 0 0 0-1.21 1.24 5.97 5.97 0 0 0-.6 1.29 2.65 2.65 0 0 0-.08.75 2.95 2.95 0 0 0 .38 1.48c.07.19.22.41.38.53l.37.34.38.15c.2.07.38.07.64.11zm-161.36 9.3h-1.02a6.2 6.2 0 0 1-1.51-.38 10.7 10.7 0 0 1-1.86-.9 11.72 11.72 0 0 1-1.55-1.33 10.32 10.32 0 0 1-1.55-2.2 9.22 9.22 0 0 1-.52-1.39l-.08-.5-.11-.82a7.67 7.67 0 0 1 .11-3.03 9.71 9.71 0 0 1 1.47-3.66l.53-.8a41.57 41.57 0 0 1 2.8-2.64 18.22 18.22 0 0 1 2.65-1.74 13.72 13.72 0 0 1 2.8-.87 15.6 15.6 0 0 1 2.26-.15 20.63 20.63 0 0 1 2.08.27 11.45 11.45 0 0 1 2.04.68l.9.52a7.14 7.14 0 0 1 1.25 1.25l.3.42a22.15 22.15 0 0 1-1.58 2.15.76.76 0 0 1-.12-.15 6.42 6.42 0 0 0-.87-.76 6.35 6.35 0 0 0-1.5-.75 3.7 3.7 0 0 0-1.25-.11c-.84 0-.91 0-1.29.1a6.2 6.2 0 0 0-1.74.88 8.13 8.13 0 0 0-2.8 3.93 25.7 25.7 0 0 0-.83 3.85 9.03 9.03 0 0 0 .08 2.08l.23.76.26.56a4.08 4.08 0 0 0 1.51 1.36c.27.12.27.12.65.12l.68-.12a4.61 4.61 0 0 0 2.75-2.26l.42-.83.19-.46.19-.04.64-.07a63.98 63.98 0 0 1 3.25-.19v.3a5.18 5.18 0 0 1-.98 2.16 12.47 12.47 0 0 1-1.4 1.55 16.36 16.36 0 0 1-3.63 2.41 13.45 13.45 0 0 1-1.74.57 9.07 9.07 0 0 1-2.11.23zm66.96 0h-3.1v-.12a121.57 121.57 0 0 1 .46-2.72v-.37h.22a3.33 3.33 0 0 0 .99-.2 2.15 2.15 0 0 0 .45-.22 2.46 2.46 0 0 0 .68-.9c.15-.23.23-.65.6-2.12a2901.28 2901.28 0 0 0 1.74-7.68l.08-.3-.11-.11a1.13 1.13 0 0 0-.3-.11 1.78 1.78 0 0 0-.42-.08c-.12 0-.5 0-.83.08a35.15 35.15 0 0 1-1.25.07l.04-.15.07-.26c0-.12.12-.27.15-.38l.53-.6a13.23 13.23 0 0 1 2.84-2.27 28.99 28.99 0 0 1 2.26-1.29c.23-.15.57-.26.76-.3a17.5 17.5 0 0 0 1.32-.34 5.97 5.97 0 0 1 1.82 0l.53.19a1.89 1.89 0 0 1 .45.26l.26.38.12.15.11.11a3.78 3.78 0 0 1 .23 1.29l-.04.68a5.78 5.78 0 0 0-.9 4.27v.15l.3.04h2.34v-.08a25.5 25.5 0 0 1 .64-1.89c0-.03-.07-.15-.19-.22a1.25 1.25 0 0 0-.38-.2 2.04 2.04 0 0 0-.49-.07c-.15 0-.41 0-.6.08a1.89 1.89 0 0 1-.38.04l.11-.23a2.95 2.95 0 0 1 .38-.5 10.96 10.96 0 0 1 1.97-1.66 40.85 40.85 0 0 1 3.74-2.45 7.4 7.4 0 0 1 1.36-.5h.53a3.9 3.9 0 0 1 1.28.42l.53.38.38.53.19.5.07.52-.11 1.02a38.06 38.06 0 0 1-1.02 4.54 309.92 309.92 0 0 0-1.36 5.97 30.8 30.8 0 0 0-.34 1.89c-.08.45-.15.79-.11.9 0 .08.03.2.1.27l.31.22c.12.08.23.08.42.08l.53-.04a3.02 3.02 0 0 1 .37-.04h.08l-.04.38a21.24 21.24 0 0 1-.49 2.57 24.15 24.15 0 0 1-4.99.42 68.78 68.78 0 0 1-3.59-.15 1.4 1.4 0 0 1-.72-.2c-.26-.14-.3-.14-.37-.37a4.16 4.16 0 0 1-.15-.38v-.57a39.94 39.94 0 0 1 .98-4.72 171.38 171.38 0 0 0 .64-2.83 26.94 26.94 0 0 0-2.53.03l-.2.04-.18.53a27.74 27.74 0 0 0-.87 3.6 365.74 365.74 0 0 0-.94 4.38 1.4 1.4 0 0 1-.2.34.87.87 0 0 1-.22.18 1318.22 1318.22 0 0 1-6.54.12zm29.48 0h-1.06a6.2 6.2 0 0 1-1.55-.42 10.96 10.96 0 0 1-2.15-1.13 11.83 11.83 0 0 1-1.51-1.36 11.34 11.34 0 0 1-1.21-1.9 9.33 9.33 0 0 1-.6-1.73l-.12-.95a9.26 9.26 0 0 1-.04-2.15 323.49 323.49 0 0 0 .3-1.66 10.43 10.43 0 0 1 1.36-3.03l.46-.68.75-.83a29.55 29.55 0 0 1 2.65-2.34 19.65 19.65 0 0 1 1.77-1.06 13.8 13.8 0 0 1 2.84-.98 13.08 13.08 0 0 1 4 0 12.1 12.1 0 0 1 2.46.68 8.31 8.31 0 0 1 1.32.8 6.31 6.31 0 0 1 1.14 1.24c.15.19.22.34.19.38a642.67 642.67 0 0 0-1.44 1.85l-.11.19-.34-.38a5.56 5.56 0 0 0-1.44-1.02 6.12 6.12 0 0 0-.75-.3 6.42 6.42 0 0 0-2.12-.11 5.78 5.78 0 0 0-1.4.49l-.72.41a8.16 8.16 0 0 0-2.64 3.44 11.11 11.11 0 0 0-.64 2.12 23.85 23.85 0 0 0-.38 1.89 12.2 12.2 0 0 0 0 2.26 6.42 6.42 0 0 0 .41 1.33l.27.41a4.04 4.04 0 0 0 .75.76l.53.38.34.19.38-.04.76-.12a4.3 4.3 0 0 0 1.13-.52 5.74 5.74 0 0 0 2.08-2.8c.07-.23.07-.23.26-.27l.68-.07a69.65 69.65 0 0 1 3.25-.19l-.03.34a5.67 5.67 0 0 1-1.4 2.65 13.04 13.04 0 0 1-6.43 4.04 9.83 9.83 0 0 1-2 .19zm13.08 0h-5.3v-.08a29.48 29.48 0 0 1 1.02-2.64l.38-.12.72-.22.64-.3a3.63 3.63 0 0 0 1.21-1.44l.76-3.03a217.45 217.45 0 0 0 1.51-6.8v-.22a.76.76 0 0 0-.23-.12c-.15-.11-.22-.11-.68-.11-.37 0-.64 0-.94.11a10.43 10.43 0 0 0-1.17.3l.07-.18a3.78 3.78 0 0 1 .9-1.14 12.66 12.66 0 0 1 1.9-1.43 40.97 40.97 0 0 1 4.8-2.65l.75-.23a5.78 5.78 0 0 1 1.63 0l.53.23a1.89 1.89 0 0 1 .41.3l.3.46a14.25 14.25 0 0 1-.18 3.47 130.19 130.19 0 0 1-.76 3.7 21.16 21.16 0 0 0-.07.88l-.04.3h.22c.12 0 .34-.12.5-.2.19-.07.37-.22.56-.4l.57-.69.57-1.02a36.8 36.8 0 0 1 1.2-2.08 11.9 11.9 0 0 1 2.31-2.34 15.72 15.72 0 0 1 6.43-2.8h.9a6.95 6.95 0 0 1 1.97.38 14.06 14.06 0 0 1 1.7.68s-.04.12-.15.2a50.11 50.11 0 0 1-1.85 2.03l-.16.2h-.52c-.53 0-.57 0-.84.1a3.4 3.4 0 0 0-.53.38c-.15.08-.37.3-.52.5l-.5.71a36.85 36.85 0 0 0-1.81 3.4 10.96 10.96 0 0 1-1.1 1.36 6.8 6.8 0 0 1-1.5 1.02 6.05 6.05 0 0 1-1.33.38.9.9 0 0 0-.26.08l.22.15.53.41c.19.23.38.42.46.6l.26.61c.08.12.15.5.23.76a13.64 13.64 0 0 1 .22 2.34c0 .23 0 .3.08.38l.26.15c.12.08.27.12.5.12.15 0 .37 0 .45-.08h.22l-.03.53a7.63 7.63 0 0 1-.46 1.89c-.22.49-.3.6-.45.75a1.13 1.13 0 0 1-.38.27 57.4 57.4 0 0 1-6.61.11 22.94 22.94 0 0 0-.9-3.78 28.08 28.08 0 0 1-.46-2.23 5.9 5.9 0 0 0-.6-1.43l-.08-.08-.34 1.32a118.36 118.36 0 0 1-1.78 6.05l-.11.23h-5.3z" />
</svg>