<svg xmlns="http://www.w3.org/2000/svg" fill-rule="evenodd" clip-rule="evenodd" image-rendering="optimizeQuality" shape-rendering="geometricPrecision" text-rendering="geometricPrecision" viewBox="0 0 92.42 23.78">
  <path fill-rule="nonzero" d="M19.63 18.63l-.1 5.15H2.77V3.87c0-1.24-.21-2.15-.63-2.72C1.73.57 1 .2-.05 0h9.12v21.56h4.86c3.21 0 4.6-.46 5.7-2.94zM27.07.01v23.77h-6.15V3.87c0-1.24-.21-2.15-.63-2.72C19.87.57 19.14.2 18.09 0zm15.87 23.77h-6.5V1.88h-1.22c-1.68 0-3.08.44-4.22 1.34a5.69 5.69 0 0 0-2.08 3.68l.13-6.9 21.13.01.03 6.92c-.25-1.56-.7-2.82-1.83-3.71a6.57 6.57 0 0 0-4.22-1.35h-1.22zm26.65-6.05l-.05 6.05H52.73V3.87c0-1.24-.21-2.15-.63-2.72C51.68.57 50.94.2 49.9 0h18.6l.03 6.72c-.96-3.2-3.03-4.8-6.23-4.8h-3.42v8h4.65c1.07 0 1.77-.41 2.1-1.24v4.79c-.33-.94-1.03-1.41-2.1-1.41h-4.65v9.6h4.62c2.8 0 5.13-1.32 6.1-3.94zm8.23-6.35h.88c3.52 0 5.28-1.76 5.28-5.27 0-1.54-.39-2.76-1.16-3.67a3.68 3.68 0 0 0-2.93-1.36c-.65 0-1.16.16-1.52.47-.36.3-.55.72-.55 1.25zm7.66.72l6.92 11.68h-7.2l-5.94-10.85H77.82v10.85h-6.18V4.2c0-3.13-3.26-4.2-3.13-4.2 3.13.1 10.79-.2 15.53.27 1.85.18 2.76.52 3.75.99 1.11.53 2.48 2.67 2.48 4.67 0 2.98-1.6 5.04-4.8 6.16z" />
</svg>