<svg xmlns="http://www.w3.org/2000/svg" viewBox="0 0 552.45 64">
   <path d="M7.75 63.91L0 64V.01h7.88c7.12 0 7.92.06 8.32.57.25.32 2.09 2.85 4.1 5.63 2 2.79 4.84 6.68 6.3 8.65a853.2 853.2 0 0 1 9.8 13.56l3.25 4.5c1.43 1.98 2.72 3.53 2.86 3.44.14-.08.25-8.3.25-18.25V0l9.87.01 9.88.01 4.68 7.1c2.58 3.89 4.67 7.23 4.65 7.4-.02.2-2.59.4-6.64.5l-6.61.16v9.14l10.36.16 10.36.17 1.72 2.31a873.5 873.5 0 0 0 4.9 6.5c.16.18 1.15 1.5 2.22 2.94a23.13 23.13 0 0 1 1.94 2.85c0 .13-7.09.28-15.75.33l-15.75.08v9.14l18.67.08 18.67.09 4.83 6.43c2.66 3.53 5.09 6.84 5.4 7.35.32.5.58.99.58 1.07 0 .09-14.46.16-32.13.16H42.48l-1.74-2.42-6.89-9.55-10.2-14.14a537.66 537.66 0 0 0-6.62-9.06c-.42-.59-.89-1.06-1.06-1.06-.18 0-.33 7.28-.38 18.03l-.09 18.03zM548.37 1.27c.45 0 .63-.08.4-.17-.22-.09-.59-.09-.81 0-.23.1-.04.17.4.17z" opacity=".5" />
   <path d="M479.82 62.56c-.38.29-.78.18-1.8-.48l-5.63-3.71a48.54 48.54 0 0 0-4.63-2.87c-.16 0-1.36.8-2.65 1.77-1.85 1.4-2.47 1.7-2.88 1.44a12.38 12.38 0 0 1-1.75-1.86 90.49 90.49 0 0 0-2.24-2.65c-.56-.63-1.62-1.87-2.37-2.74-.74-.88-3.21-3.75-5.5-6.37-2.28-2.62-4.15-4.91-4.16-5.1 0-.18.47-.52 1.05-.76a161.9 161.9 0 0 1 6.61-2.5 323.24 323.24 0 0 0 5.88-2.22 446.7 446.7 0 0 1 8.81-3.24c.54-.19 1.42-.53 1.96-.76.54-.22 2.08-.8 3.43-1.28a149.38 149.38 0 0 0 5.06-1.9c.71-.28 2.77-1.04 4.56-1.7a323.24 323.24 0 0 0 5.88-2.22c.72-.28 2.7-1.01 4.4-1.64a3538.7 3538.7 0 0 0 12.9-4.79c.36-.14 2.7-1.03 5.22-1.95 2.52-.93 4.87-1.81 5.22-1.96.36-.15 1.76-.67 3.1-1.15a77.76 77.76 0 0 0 3.43-1.3 37.7 37.7 0 0 1 2.48-.92 303.46 303.46 0 0 0 10.26-3.8c.35-.16 2.34-.92 4.4-1.69 2.06-.77 3.8-1.51 3.86-1.66.06-.14.54-.25 1.06-.25.53 0 .95-.15.95-.33 0-.18-.35-.33-.8-.33-.43 0-.88.15-.99.33-.11.18-.51.33-.9.33-.37 0-1.14.14-1.69.33a1196.13 1196.13 0 0 1-11.45 3.3l-2.12.62c-.45.15-1.7.51-2.77.81-1.08.3-2.33.67-2.78.82a136.06 136.06 0 0 1-5.55 1.62l-3.91 1.12c-1.53.45-4.1 1.2-5.71 1.65-1.62.46-3.97 1.15-5.23 1.54a115.8 115.8 0 0 1-5.46 1.55c-.59.16-1.87.54-2.86.84l-2.77.8-6.2 1.76-6.53 1.88c-.72.2-1.9.56-2.62.79l-2.6.77a226.32 226.32 0 0 0-5.72 1.66c-.45.14-1.4.42-2.12.61-.72.2-2.34.67-3.6 1.05-1.25.38-3.05.9-4 1.15-.96.25-1.96.46-2.23.46-.32 0-.4-.15-.22-.46.14-.25.7-.95 1.24-1.55.53-.6 1.78-2.05 2.77-3.22.99-1.16 2.33-2.7 2.97-3.42.65-.72 2.84-3.21 4.86-5.55 2.03-2.33 4-4.34 4.37-4.45.38-.12 2.24-.38 4.12-.59a2274.7 2274.7 0 0 0 19.26-2.16c.8-.1 2.79-.32 4.4-.48 1.62-.16 4.85-.51 7.19-.78 2.33-.27 5.05-.57 6.03-.67a281 281 0 0 0 4.41-.5c1.44-.18 4.67-.55 7.18-.82a1847.88 1847.88 0 0 0 14.7-1.63l7.17-.79c1.44-.16 3.35-.29 4.25-.3h1.63l-1.31 1.2a148 148 0 0 1-3.27 2.86l-4.4 3.77a437.08 437.08 0 0 1-3.4 2.91 1664.97 1664.97 0 0 1-12.26 10.57c-3.33 2.84-7.06 6.06-8.3 7.15a95.34 95.34 0 0 1-3.1 2.65c-.46.36-1.35 1.1-1.95 1.64l-1.47 1.31-2.48 2.12-3.1 2.65-3.27 2.81a1438.87 1438.87 0 0 0-8.81 7.63c-.54.48-3.7 3.18-7.02 6l-7.03 6c-.54.48-1.2 1.03-1.46 1.23z" opacity=".5" />
   <path d="M409.72 63.99h-11.84l.09-7.43.09-7.42 8.8-.2c4.86-.12 9.3-.32 9.88-.45a4.8 4.8 0 0 0 2.08-1.4c.88-1 1-1.34.84-2.5-.14-1.08-.48-1.6-1.81-2.8-.9-.8-2.27-1.78-3.05-2.17l-5.58-2.72c-2.52-1.21-4.86-2.6-5.88-3.5a21.03 21.03 0 0 1-2.9-3.24c-.65-.96-1.45-2.6-1.77-3.63-.42-1.37-.58-3.05-.6-6.28 0-2.8.15-4.89.42-5.71.23-.72.67-1.9.96-2.61.3-.72.91-1.9 1.37-2.62.45-.71 1.01-1.5 1.24-1.74.22-.23.56-.72.75-1.07a17.5 17.5 0 0 1 2.8-2.59c1.36-1.08 3-2.19 3.66-2.46a48 48 0 0 1 2.55-.98c1.1-.38 3.57-.45 13.06-.38l11.7.08.08 7.16c.05 4.06-.04 7.3-.21 7.46-.17.17-1.9.43-3.84.59-1.95.16-6.08.5-9.19.74-4.5.37-5.77.58-6.28 1.04a4.42 4.42 0 0 0-.97 1.8c-.22.8-.22 1.52-.02 2.05.17.45 1.1 1.4 2.04 2.09.96.7 2.62 1.65 3.7 2.12 1.07.48 2.67 1.12 3.55 1.43.87.32 2.42 1.11 3.42 1.77 1.01.66 2.28 1.7 2.82 2.3.53.62 1.35 1.63 1.81 2.26a14.8 14.8 0 0 1 1.34 2.28c.27.63.66 1.59.86 2.13.2.53.5 2.22.68 3.75.24 2.06.2 3.53-.11 5.71a37.52 37.52 0 0 1-.78 4c-.18.58-.85 2.1-1.48 3.35a20.52 20.52 0 0 1-2.88 4.12c-.95 1-2.54 2.35-3.52 3-1 .63-2.75 1.5-3.92 1.91-2.07.74-2.43.75-13.96.76zM376.43 63.9l-16.07.1V0l16.07.1 16.08.08v14.68l-8.15.1c-6.01.06-8.2.18-8.4.48-.14.22-.26 2.18-.26 4.36 0 2.9.11 4.06.43 4.32.28.24 3.2.4 8.4.45l7.98.09v14.68l-7.97.1c-5.22.05-8.13.2-8.4.44-.33.26-.44 1.42-.44 4.32 0 2.18.12 4.14.26 4.36.2.3 2.39.42 8.4.49l8.15.09v14.68zM257.63 63.99c-5.26 0-9.56-.1-9.56-.23 0-.12.27-.52.6-.9.33-.36 3.3-4.46 6.61-9.1l6.66-9.34c.36-.5 1.1-1.55 1.63-2.34a448.92 448.92 0 0 0 7.53-10.41c3.38-4.75 6.34-8.84 6.57-9.08.24-.24.43-.54.43-.67s.26-.53.58-.87c.32-.35 3.85-5.23 7.84-10.84l7.26-10.2h15.65l.08 18.2c.06 11.13.2 18.2.4 18.2.17 0 1.05-1.07 1.96-2.37l6.05-8.77a36803.25 36803.25 0 0 0 15.14-21.99l2.25-3.27h16.89V64h-16.65V45.7c0-10.05-.11-18.28-.25-18.28s-1.06 1.2-2.04 2.68a763 763 0 0 1-9.06 13.15c-.14.18-1.1 1.58-2.14 3.1a1167.2 1167.2 0 0 1-4.49 6.53l-4.72 6.85c-1.16 1.71-2.32 3.37-2.56 3.68-.4.53-1.11.57-8.24.5l-7.8-.1-.05-17.94c-.04-10.17-.2-17.99-.36-18.04-.16-.06-.95.75-1.75 1.78-.8 1.04-3.51 4.74-6.01 8.22a6094.87 6094.87 0 0 1-16.71 23.13l-2.18 3.02zM230.4 63.99c-5.18 0-9.42-.1-9.42-.2 0-.12 2.31-3.44 5.14-7.38a8121.61 8121.61 0 0 0 12.96-18.1c3.58-5 6.63-9.23 6.77-9.41l1.02-1.3c.42-.55 3.31-4.58 6.42-8.98 3.12-4.4 6.42-9.03 7.35-10.28l3.9-5.3L266.75 0h9.43c5.19 0 9.43.1 9.43.2 0 .12-2.68 3.98-5.95 8.58-3.28 4.6-6.22 8.64-6.53 9-.32.34-.58.73-.58.87 0 .13-.2.43-.44.67-.24.24-.79.97-1.22 1.62-.43.65-3.72 5.25-7.31 10.22l-7.19 9.97-7.48 10.5a557.02 557.02 0 0 1-7.96 10.96L239.83 64zM207.42 63.99c-5.84 0-7.71-.1-7.83-.41-.09-.22-.2-11.2-.24-24.4l-.08-23.99-10.12-.16-10.11-.17-.1-7.42-.08-7.43H236.99l-.1 7.43-.08 7.42-10.77.17-10.77.16-.09 24.4-.08 24.4z" />
   <path d="M122.9 63.9l-7.84.09-5.22-7.53a402.3 402.3 0 0 0-5.58-7.92 854.03 854.03 0 0 0-9.22-13.28c-3.97-5.65-7.35-10.44-7.51-10.63-.17-.2-.7-.99-1.2-1.77-.49-.78-1.02-1.58-1.19-1.77-.16-.2-3.37-4.76-7.13-10.14A793.62 793.62 0 0 0 70.84.76c-.18-.22-.34-.47-.34-.57 0-.1 4.32-.18 9.59-.18h9.58l2.25 3.26a20530.89 20530.89 0 0 1 19.67 28.57 52.1 52.1 0 0 0 3 4.14c.3.3.65.46.76.35.11-.1.2-8.33.2-18.26V0l7.9.09 7.9.09 4.35 6.03c2.4 3.33 4.68 6.5 5.08 7.08a1338.26 1338.26 0 0 0 11.3 15.66l3.55 4.82c1.13 1.55 2.2 2.73 2.37 2.63.19-.12.3-7.1.3-18.3V0l7.6.09 7.59.09v63.64l-7.84.08-7.83.07-2.45-3.34c-1.34-1.83-4.28-5.89-6.53-9.01a7098.45 7098.45 0 0 0-9.79-13.55 1791.5 1791.5 0 0 1-5.16-7.13 62.46 62.46 0 0 0-1.58-2.12c-.46-.59-.97-1.06-1.13-1.06-.16 0-.32 7.92-.37 18.03l-.08 18.03-7.84.09z" opacity=".5" />
</svg>