<svg xmlns="http://www.w3.org/2000/svg" viewBox="0 0 208.17 64">
   <g fill-rule="evenodd">
      <path d="M32.88 64H0V.33h65.76V64zm-.1-1.78l31.1-.1V2.22l-31.1-.11-31.1-.1v60.32zM177.64 64c-1.3-.01-3.35-.36-4.57-.78a11.33 11.33 0 0 1-3.46-1.96l-1.24-1.2 1.04-1.04 1.04-1.04.96.9c.53.5 1.66 1.2 2.51 1.55.86.36 2.7.65 4.1.65 1.4 0 3.17-.26 3.93-.59a5.59 5.59 0 0 0 2.09-1.56c.41-.59.68-1.81.68-3.12 0-1.75-.2-2.36-1.07-3.23-.8-.8-1.82-1.19-4.09-1.56a70.96 70.96 0 0 1-4.68-.9c-.93-.24-2.3-.9-3.04-1.46a8.17 8.17 0 0 1-2-2.24 8.92 8.92 0 0 1-.62-3.35c0-1.17.26-2.73.57-3.47a7.85 7.85 0 0 1 1.58-2.27c.55-.51 1.75-1.24 2.67-1.63 1-.42 2.75-.7 4.4-.69 1.5 0 3.56.32 4.58.7 1.03.37 2.2.98 2.62 1.36.41.37.75.85.75 1.07 0 .2-.3.69-.68 1.06-.63.63-.8.61-2.34-.27a11.65 11.65 0 0 0-3.86-1.19 10.8 10.8 0 0 0-3.68.26c-.8.27-1.88.93-2.4 1.48a5.6 5.6 0 0 0-1.15 2.64c-.14 1.07.01 2.1.45 2.93.44.87 1.25 1.5 2.45 1.95.98.37 3.08.86 4.66 1.1 1.58.25 3.6.8 4.46 1.25.88.45 2.01 1.5 2.53 2.32a9.7 9.7 0 0 1 1.14 3.37 8.12 8.12 0 0 1-.51 3.75 7.52 7.52 0 0 1-2.13 2.96c-.78.59-2.3 1.34-3.38 1.67-1.09.32-3.03.58-4.31.58zm-92.76-.4c-.76 0-1.47-.09-1.56-.18-.1-.1-.12-6.5-.06-14.24l.12-14.07h1.37c1.35 0 1.58.3 8.69 11.1 4.01 6.1 7.44 11.1 7.61 11.1.17 0 .31-5 .31-11.1V35.1h2.94v28.48h-1.57l-1.57-.01-7.33-11.17-7.33-11.17-.12 11.17-.1 11.18h-1.4zm36.59 0h-8.8V35.1h17.6V38.03h-14.69l.12 4.92.12 4.92 6.17.12 6.18.12v2.49h-12.56v10.47h14.66v2.51zm20.41-.09c-1.14.1-1.54-.05-1.72-.63-.13-.41-1.74-6.7-3.6-13.98a728.1 728.1 0 0 1-3.36-13.51c0-.15.71-.28 1.58-.28h1.58l2.43 10.16a367.69 367.69 0 0 0 2.79 11.2c.33.98.38 1 .63.21.15-.46 1.54-5.46 3.09-11.1l2.81-10.26h2.87l1.33 4.81 3.13 11.31 1.8 6.5 2.75-11.31 2.75-11.31 1.57-.13c1.08-.1 1.56.04 1.55.42-.01.3-1.58 6.67-3.5 14.16l-3.48 13.61-1.5.13c-1.43.12-1.54.04-1.96-1.47l-3.02-10.91c-1.42-5.13-2.69-9.32-2.83-9.32-.13 0-1.58 4.85-3.22 10.79l-2.98 10.78zm21-34.52c-1 .13-2.73-.02-3.83-.33-1.1-.3-2.7-1.1-3.56-1.78a11.59 11.59 0 0 1-2.59-3.3c-.97-1.93-1.02-2.43-1-8.98.02-5.55.16-7.26.74-8.6.39-.92 1.22-2.21 1.84-2.87.62-.65 1.83-1.55 2.7-2 .86-.44 2.4-.92 3.43-1.06 1.03-.14 2.77-.03 3.86.25 1.1.27 2.91 1.17 4.03 2l2.05 1.5-1.01 1-1.01 1.01-2.27-1.53c-2.1-1.4-2.47-1.52-4.69-1.35-1.56.1-2.82.47-3.56 1.02a9.18 9.18 0 0 0-1.98 2.28c-.75 1.27-.84 2.18-.84 8.33 0 6.16.09 7.07.84 8.34.46.78 1.34 1.8 1.97 2.27.7.52 1.98.9 3.35 1a5.72 5.72 0 0 0 3.9-.8c1.08-.63 2-1.62 2.6-2.83a9.1 9.1 0 0 0 .95-3.86V16.7l-3.45-.12-3.46-.12-.13-1.36-.13-1.36h10.1v3.9c0 3.33-.15 4.2-1.06 6.03a10.34 10.34 0 0 1-2.41 3.14c-.74.54-1.84 1.2-2.44 1.46-.6.26-1.92.58-2.93.7zm-78.48-.16h-1.45l-.11-12.88-.11-12.88-4.09-.12-4.08-.12V.33h19.68v2.49l-4.08.12-4.08.12-.11 12.88-.12 12.88zm24.11 0H99.7V.33h17.6v2.52h-14.67V12.9h12.57V15.83h-12.57v10.03l7.23.12 7.22.11.13 1.36.13 1.37zm16.51 0h-1.46V.33l1.58.02 1.57.01 7.33 11.17 7.33 11.17.1-11.18.12-11.19h3.13l-.1 13.72-.1 14.24c0 .31-.58.53-1.42.53-1.38 0-1.56-.23-8.9-11.4l-7.5-11.39-.1 11.4-.12 11.39zm55.3 0h-1.47V.33h6.65c4.8 0 7.05.17 8.07.6a9.03 9.03 0 0 1 2.54 1.78 8.72 8.72 0 0 1 1.57 2.36c.24.65.44 2.14.44 3.32 0 1.53-.3 2.65-1.06 3.95a6.97 6.97 0 0 1-2.83 2.7c-.97.5-1.83.95-1.9 1.02-.09.07 1.28 2.85 3.03 6.17a99.3 99.3 0 0 1 3.18 6.34c0 .16-.78.24-1.74.16l-1.74-.12-3.18-6.17-3.18-6.17-3.46-.01-3.45-.01V28.8zm6.3-15.5c3.42 0 5.19-.18 6.02-.61a5.34 5.34 0 0 0 2.4-5.2A6.98 6.98 0 0 0 194 4.95a5.7 5.7 0 0 0-2.4-1.6c-.98-.33-3.14-.49-5.6-.41l-4.01.12-.12 5.13-.12 5.13zm20.1 15.5h-1.46l-.11-14.25-.12-14.24h3.14V28.82z" />
      <path d="M33.38 51.43h-7V46.2c0-2.88.11-5.24.24-5.24s3.1 2.2 6.6 4.87c3.5 2.68 6.54 5.03 6.76 5.24.23.2-2.55.36-6.6.36zm7.35-16.35a39.6 39.6 0 0 1-4.08-2.94l-7.01-5.43-3.25-2.5H13.82V12.06H53.2v12.15H41.05v5.44c0 3-.14 5.44-.32 5.43z" opacity=".5" />
   </g>
</svg>