<svg xmlns="http://www.w3.org/2000/svg" fill="currentColor" viewBox="0 0 379.21 64">
   <path d="M56.62 46.16C56.62 56.62 47.65 63 33 63H0V1h32.2c13.66 0 21.83 5.78 21.83 15.65 0 6.58-3.69 11.86-9.57 14.15 7.48 2.2 12.16 7.88 12.16 15.36zm-41.47-32.9v12.96h14.06c6.78 0 9.87-2.3 9.87-6.58 0-4.39-3.2-6.38-9.87-6.38zM30.9 50.64c7.38 0 10.57-2.3 10.57-6.68 0-4.78-3.59-6.78-10.77-6.78H15.25v13.46zM86.73 1h15.15l26.42 62h-16.15L94.4 18.54h-.1L76.57 63H60.41zM184.72 63l-4.28-10.46h-29.21L146.84 63H131.2L158.4 1h15.26l27.31 62zm-28.7-22.03h19.63l-9.77-23.82zM201.27 32c0-18.44 14.16-32 33-32 10.27 0 18.94 3.49 25.52 10.57l-9.87 9.07a19.26 19.26 0 0 0-14.95-6.58c-10.17 0-18.05 7.48-18.05 18.84 0 11.46 7.88 18.94 17.95 18.94 5.88 0 11.06-2.3 15.25-6.68l9.87 9.07C253.9 60.51 244.93 64 234.87 64c-19.14 0-33.6-13.56-33.6-32zM317.3 1v13.06h-19.43V63h-15.35V14.06h-19.44V1zM351.6 17.25c17.05 0 27.61 9.17 27.61 23.32 0 13.86-10.56 22.43-27.51 22.43h-26.02V1h15.35v16.25zm-.3 33.2c7.98 0 12.76-3.9 12.76-9.88 0-6.68-4.78-10.66-12.76-10.66h-10.27v20.53z" />
</svg>