<svg xmlns="http://www.w3.org/2000/svg" viewBox="0 0 437.84 64">
   <g fill-rule="evenodd">
      <path d="M34.54 2.5c.09-.36.09-.63.27-.99.44-.98 1.15-.8 1.95-.7l8.28 1.06c.8.09 1.7.27 1.7 1.07 0 .44-.27.89-.36 1.33l-16.2 57.5c-.36 1.16-.1 1.52-2.32 1.52h-9.7c-1.25 0-1.6.17-2.05-1.52L.45 4.63C.27 3.92 0 3.38 0 2.93c0-.44.18-.97 1.16-1.06L11.04.8c.98-.09 1.78-.53 2.22 1.7l7.57 35.78c.44 1.86 1.69 9.34 2.23 13.61h.17c.63-3.91 1.96-10.68 2.67-13.61zM156.32 63.2c-.71.18-1.34.09-1.7-.27-.08-.09-.35-.36-.88-1.42l-7.66-15.05c-1.33-2.67-1.96-4-2.58-5.96h-.18a44.27 44.27 0 0 1-2.49 5.6l-8.28 15.67c-.09.27-.27.45-.44.72-.27.44-.54.8-1.16.8-.09 0-.36 0-1.07-.18l-8.19-1.87c-.71-.18-1.78-.36-1.78-1.25 0-.35.1-.7.63-1.6l16.55-28.21L122.05 5.6c-.36-.62-.8-1.16-.8-1.7 0-.8.8-.88 1.6-1.06l8.9-1.96c.71-.18.98-.18 1.16-.18.71 0 .89.54 1.16 1.07l6.58 13.17a32.06 32.06 0 0 1 2.67 6.77h.18c.89-3.3 1.78-5.16 2.5-6.77l5.78-12.46c.18-.35.27-.62.44-.98.18-.35.54-.8 1.16-.8.18 0 .8.1 1.07.18l8.1 2.23c.8.26 1.69.44 1.69 1.24 0 .18-.09.36-.36.9l-14.15 24.92 15.85 27.94c.26.45.62 1.07.62 1.52 0 .8-.98 1.07-1.7 1.24zM209.89 28.48h2.76c5.16 0 10.24-.7 10.24-9.34 0-8.2-5.7-8.28-9.08-8.28h-3.92zm0 32.23c0 .8-.18 1.78-1.78 1.78h-8.55c-1.6 0-1.77-.98-1.77-1.78V3.29c0-1.6.97-1.78 1.77-1.78h14.6c4 0 9.53.18 13.62 2.5 3.38 1.86 7.21 5.87 7.21 14.5 0 11.75-7.74 19.59-20.38 19.59h-4.72zM271 32.04c0-8.63-.98-22.43-9.52-22.43-8.55 0-9.53 13.8-9.53 22.43 0 7.3.53 22.35 9.53 22.35 8.98 0 9.52-15.05 9.52-22.35M261.48 64c-21.72 0-22.17-25.55-22.17-31.96 0-6.5.45-32.04 22.17-32.04 21.72 0 22.16 25.55 22.16 32.04 0 6.41-.44 31.96-22.16 31.96M302.45 28.48h2.76c5.16 0 10.24-.7 10.24-9.34 0-8.2-5.7-8.28-9.08-8.28h-3.92zm0 32.23c0 .8-.18 1.78-1.78 1.78h-8.54c-1.6 0-1.78-.98-1.78-1.78V3.29c0-1.6.98-1.78 1.78-1.78h14.6c4 0 9.52.18 13.61 2.5 3.39 1.86 7.21 5.87 7.21 14.5 0 11.75-7.74 19.59-20.38 19.59h-4.72zM377.16 41.84c0 7.56-.7 22.16-21.45 22.16-20.74 0-21.45-14.6-21.45-22.16V3.38c0-2.22 1.15-1.87 1.87-1.87h8.28c.7 0 1.86-.35 1.86 1.87v38.46c0 4.71-.35 12.55 9.44 12.55 9.8 0 9.44-7.84 9.44-12.55V3.38c0-2.22 1.15-1.87 1.87-1.87h8.27c.72 0 1.87-.35 1.87 1.87zM417.6 51.8c.45 0 1.34.1 1.43.98v.18c0 .63-.09.9-.18 1.16l-1.69 6.76c-.35 1.25-.53 1.6-1.96 1.6h-29.55c-1.6 0-1.78-.97-1.78-1.77V3.29c0-1.6.98-1.78 1.78-1.78h8.55c1.6 0 1.78.98 1.78 1.78V51.8zM437.77 3.36c0-.62.1-1.42-.29-1.69-.37-.27-.94-.18-1.23-.09l-8.7 1.7c-1.9.35-1.8.8-1.8 1.6l-.01 55.83c0 .8.18 1.78 1.78 1.78h8.54c1.6 0 1.78-.98 1.78-1.78z" />
      <path d="M108.93 57.6v-6.48h3.47v9.96h-10.12V57.6zM102.28 6.4V2.91h10.12v9.92h-3.47V6.39zM64.37 2.92v3.47H57.7v6.45h-3.47V2.92zM57.71 51.12v6.48h6.66v3.48H54.24v-9.96z" opacity=".5" />
      <path d="M83.32 10.99a21.04 21.04 0 0 0-21 21 21.04 21.04 0 0 0 21 21.02A21.04 21.04 0 0 0 104.33 32a21.04 21.04 0 0 0-21-21.01" />
   </g>
</svg>